<svg width="517" height="536" viewBox="0 0 517 536" fill="none" xmlns="http://www.w3.org/2000/svg">
<g clip-path="url(#clip0_5_23)">
<path opacity="0.1" d="M134.972 462.954H60.7716V342.779H120.778L134.972 361.228V462.954Z" fill="#292A2E"/>
<path opacity="0.1" d="M120.778 342.779V360.953L134.972 361.228L120.778 342.779Z" fill="#292A2E"/>
<path d="M102.939 390.277V395.958C102.939 397.193 102.544 398.378 101.841 399.251C101.139 400.125 100.185 400.615 99.1916 400.615H53.5937C52.5997 400.615 51.6465 401.106 50.9436 401.979C50.2408 402.853 49.8459 404.037 49.8459 405.273V481.136C49.8459 482.371 50.2408 483.556 50.9436 484.429C51.6465 485.303 52.5997 485.794 53.5937 485.794H142.149C143.143 485.794 144.097 485.303 144.799 484.429C145.502 483.556 145.897 482.371 145.897 481.136V390.277C145.897 389.042 145.502 387.857 144.799 386.984C144.097 386.11 143.143 385.62 142.149 385.62H106.687C105.693 385.62 104.74 386.11 104.037 386.984C103.334 387.857 102.939 389.042 102.939 390.277Z" fill="white"/>
<path opacity="0.05" d="M102.939 390.277V395.958C102.939 397.193 102.544 398.378 101.841 399.251C101.139 400.125 100.185 400.615 99.1916 400.615H53.5937C52.5997 400.615 51.6465 401.106 50.9436 401.979C50.2408 402.853 49.8459 404.037 49.8459 405.273V481.136C49.8459 482.371 50.2408 483.556 50.9436 484.429C51.6465 485.303 52.5997 485.794 53.5937 485.794H142.149C143.143 485.794 144.097 485.303 144.799 484.429C145.502 483.556 145.897 482.371 145.897 481.136V390.277C145.897 389.042 145.502 387.857 144.799 386.984C144.097 386.11 143.143 385.62 142.149 385.62H106.687C105.693 385.62 104.74 386.11 104.037 386.984C103.334 387.857 102.939 389.042 102.939 390.277Z" fill="#292A2E"/>
<path opacity="0.1" d="M229.736 171.543H155.537V51.3691H215.544L229.736 69.8176V171.543Z" fill="#292A2E"/>
<path opacity="0.1" d="M215.544 51.3691V69.5432L229.736 69.8176L215.544 51.3691Z" fill="#292A2E"/>
<path d="M197.705 98.8669V104.548C197.705 105.159 197.608 105.765 197.419 106.33C197.231 106.895 196.955 107.408 196.607 107.841C196.259 108.273 195.846 108.616 195.391 108.85C194.936 109.085 194.449 109.205 193.957 109.205H148.357C147.363 109.205 146.41 109.696 145.708 110.569C145.005 111.443 144.61 112.627 144.61 113.862V189.723C144.61 190.958 145.005 192.143 145.708 193.016C146.41 193.89 147.363 194.381 148.357 194.381H236.915C237.909 194.381 238.862 193.89 239.565 193.017C240.267 192.143 240.662 190.959 240.662 189.723V98.8669C240.662 97.6317 240.267 96.447 239.565 95.5736C238.862 94.7002 237.909 94.2095 236.915 94.2095H201.451C200.457 94.21 199.504 94.7009 198.802 95.5743C198.099 96.4477 197.705 97.632 197.705 98.8669Z" fill="white"/>
<path opacity="0.05" d="M197.705 98.8669V104.548C197.705 105.159 197.608 105.765 197.419 106.33C197.231 106.895 196.955 107.408 196.607 107.841C196.259 108.273 195.846 108.616 195.391 108.85C194.936 109.085 194.449 109.205 193.957 109.205H148.357C147.363 109.205 146.41 109.696 145.708 110.569C145.005 111.443 144.61 112.627 144.61 113.862V189.723C144.61 190.958 145.005 192.143 145.708 193.016C146.41 193.89 147.363 194.381 148.357 194.381H236.915C237.909 194.381 238.862 193.89 239.565 193.017C240.267 192.143 240.662 190.959 240.662 189.723V98.8669C240.662 97.6317 240.267 96.447 239.565 95.5736C238.862 94.7002 237.909 94.2095 236.915 94.2095H201.451C200.457 94.21 199.504 94.7009 198.802 95.5743C198.099 96.4477 197.705 97.632 197.705 98.8669Z" fill="#292A2E"/>
<path opacity="0.1" d="M505.451 429.351H431.251V309.177H491.258L505.451 327.625V429.351Z" fill="#292A2E"/>
<path opacity="0.1" d="M491.258 309.177V327.351L505.451 327.625L491.258 309.177Z" fill="#292A2E"/>
<path d="M473.419 356.674V362.356C473.419 362.967 473.322 363.573 473.134 364.138C472.946 364.703 472.67 365.216 472.322 365.649C471.974 366.081 471.56 366.425 471.106 366.659C470.651 366.893 470.164 367.013 469.671 367.013H424.073C423.079 367.013 422.126 367.504 421.423 368.377C420.72 369.251 420.325 370.435 420.325 371.671V447.531C420.325 448.766 420.72 449.951 421.423 450.824C422.126 451.697 423.079 452.188 424.073 452.188H512.629C513.623 452.188 514.576 451.697 515.279 450.824C515.982 449.951 516.377 448.766 516.377 447.531V356.674C516.377 355.439 515.982 354.255 515.279 353.381C514.576 352.508 513.623 352.018 512.629 352.018H477.167C476.173 352.018 475.22 352.508 474.517 353.381C473.814 354.255 473.419 355.439 473.419 356.674V356.674Z" fill="white"/>
<path opacity="0.05" d="M473.419 356.674V362.356C473.419 362.967 473.322 363.573 473.134 364.138C472.946 364.703 472.67 365.216 472.322 365.649C471.974 366.081 471.56 366.425 471.106 366.659C470.651 366.893 470.164 367.013 469.671 367.013H424.073C423.079 367.013 422.126 367.504 421.423 368.377C420.72 369.251 420.325 370.435 420.325 371.671V447.531C420.325 448.766 420.72 449.951 421.423 450.824C422.126 451.697 423.079 452.188 424.073 452.188H512.629C513.623 452.188 514.576 451.697 515.279 450.824C515.982 449.951 516.377 448.766 516.377 447.531V356.674C516.377 355.439 515.982 354.255 515.279 353.381C514.576 352.508 513.623 352.018 512.629 352.018H477.167C476.173 352.018 475.22 352.508 474.517 353.381C473.814 354.255 473.419 355.439 473.419 356.674V356.674Z" fill="#292A2E"/>
<path d="M491.59 72.4104C493.506 57.8653 491.222 42.9467 485.143 30.2913C481.805 23.2738 477.378 17.1497 472.121 12.2743C466.863 7.39883 460.879 3.86904 454.516 1.88958C451.259 0.876458 447.929 0.271182 444.575 0.0828131V0.0239258H427.475V2.90137C415.226 7.70065 404.956 18.223 398.828 32.25C394.74 28.9095 389.952 27.1363 385.059 27.1509C384.288 27.1509 383.485 27.1984 382.722 27.2894H371.167L367.391 36.1439L367.308 36.2443C367.196 36.3781 367.086 36.512 366.979 36.6458C363.074 41.6388 360.592 48.0821 359.91 54.9925C340.023 56.7632 324.138 77.537 323.661 102.526C323.395 115.456 327.268 127.989 334.431 137.373C337.954 142.018 342.185 145.746 346.879 148.338C351.573 150.931 356.635 152.336 361.77 152.473L484.629 152.492C502.479 152.492 517.001 134.318 517.001 111.977C517 92.6289 506.577 76.4482 491.59 72.4104Z" fill="#292A2E"/>
<path d="M471.966 151.847C489.527 151.847 503.819 133.966 503.819 111.977C503.882 102.802 501.373 93.8845 496.723 86.7568C492.073 79.6291 485.571 74.7355 478.333 72.9158C480.399 58.3362 478.163 43.32 472.037 30.624C467.59 21.285 461.22 13.5881 453.584 8.32638C445.947 3.06464 437.319 0.428313 428.59 0.689006C419.861 0.949699 411.345 4.09798 403.92 9.80951C396.496 15.521 390.431 23.5892 386.35 33.1829C381.55 29.0847 375.738 27.2296 369.943 27.9461C364.148 28.6625 358.744 31.9044 354.688 37.0976C350.76 42.1194 348.304 48.6364 347.716 55.6016C328.034 57.0738 311.996 77.5612 311.519 102.541C311.255 115.3 315.077 127.668 322.144 136.928C325.619 141.511 329.792 145.188 334.421 147.746C339.05 150.304 344.042 151.691 349.107 151.827L471.966 151.847Z" fill="white"/>
<path d="M471.966 152.516L349.107 152.497C343.969 152.36 338.905 150.953 334.208 148.36C329.512 145.766 325.278 142.037 321.753 137.389C314.587 128.001 310.712 115.462 310.98 102.525C311.457 77.5305 327.341 56.754 347.23 54.9713C347.916 48.0622 350.399 41.6208 354.303 36.6279C358.376 31.414 363.781 28.1223 369.592 27.3165C375.403 26.5108 381.259 28.2412 386.157 32.2114C390.353 22.6328 396.516 14.6072 404.02 8.95184C411.524 3.29652 420.099 0.213544 428.874 0.0168731C437.648 -0.179798 446.308 2.51686 453.97 7.83223C461.633 13.1476 468.026 20.8918 472.497 30.2761C478.575 42.9298 480.861 57.8457 478.949 72.3899C493.937 76.4371 504.357 92.6224 504.357 111.975C504.358 134.331 489.827 152.516 471.966 152.516ZM372.395 28.4633C369.164 28.4494 365.963 29.2485 362.987 30.8126C360.01 32.3766 357.319 34.6732 355.076 37.5641C351.232 42.4801 348.829 48.8583 348.251 55.6753L348.204 56.2394L347.748 56.2735C328.202 57.735 312.525 78.0665 312.058 102.56C311.798 115.143 315.566 127.34 322.536 136.473C325.962 140.99 330.076 144.615 334.64 147.137C339.204 149.658 344.126 151.027 349.12 151.162L471.966 151.181C489.233 151.181 503.281 133.596 503.281 111.981C503.281 93.0553 492.978 77.2621 478.226 73.575L477.712 73.4465L477.802 72.8041C479.821 58.3818 477.611 43.5377 471.573 30.968C467.176 21.7299 460.877 14.1159 453.324 8.91065C445.771 3.70538 437.237 1.09714 428.603 1.35471C419.969 1.61228 411.546 4.72635 404.202 10.376C396.859 16.0257 390.86 24.0065 386.825 33.4962L386.54 34.1587L386.043 33.7317C382.033 30.2871 377.271 28.4488 372.395 28.4633V28.4633Z" fill="#292A2E"/>
<path d="M396.642 106.666H342.54V535.118H396.642V106.666Z" fill="#262626"/>
<path d="M397.18 535.789H342.001V105.997H397.18V535.789ZM343.078 534.45H396.103V107.335H343.078V534.45Z" fill="#292A2E"/>
<path d="M173.546 535.119H342.54L342.54 106.667H173.546L173.546 535.119Z" fill="white"/>
<path d="M343.078 535.789H173.008V105.997H343.078V535.789ZM174.085 534.45H342.001V107.335H174.085V534.45Z" fill="#292A2E"/>
<path d="M330.003 123.898H186.083V164.029H330.003V123.898Z" fill="#367CFF"/>
<g opacity="0.5">
<path d="M330.003 123.898H186.083V164.029H330.003V123.898Z" fill="white"/>
</g>
<path d="M330.003 164.698H186.083C185.94 164.698 185.804 164.628 185.703 164.502C185.602 164.377 185.545 164.206 185.545 164.029V123.899C185.545 123.721 185.602 123.551 185.703 123.425C185.804 123.3 185.94 123.229 186.083 123.229H330.003C330.146 123.229 330.283 123.3 330.384 123.425C330.485 123.551 330.541 123.721 330.541 123.899V164.029C330.541 164.206 330.485 164.377 330.384 164.502C330.283 164.628 330.146 164.698 330.003 164.698ZM186.622 163.36H329.465V124.568H186.622V163.36Z" fill="#292A2E"/>
<path d="M202.395 152.197C206.054 152.197 209.02 148.511 209.02 143.964C209.02 139.417 206.054 135.731 202.395 135.731C198.737 135.731 195.771 139.417 195.771 143.964C195.771 148.511 198.737 152.197 202.395 152.197Z" fill="white"/>
<path d="M202.396 152.866C200.979 152.866 199.595 152.344 198.417 151.366C197.239 150.388 196.321 148.998 195.779 147.372C195.237 145.746 195.095 143.956 195.372 142.23C195.648 140.503 196.33 138.917 197.332 137.673C198.333 136.428 199.609 135.58 200.999 135.237C202.388 134.894 203.828 135.07 205.136 135.743C206.445 136.417 207.564 137.558 208.351 139.021C209.137 140.485 209.557 142.206 209.557 143.966C209.555 146.325 208.8 148.587 207.457 150.256C206.115 151.924 204.294 152.863 202.396 152.866V152.866ZM202.396 136.404C201.192 136.404 200.016 136.848 199.015 137.679C198.015 138.51 197.235 139.69 196.774 141.072C196.314 142.454 196.193 143.974 196.428 145.441C196.663 146.908 197.242 148.255 198.093 149.313C198.944 150.37 200.028 151.091 201.209 151.382C202.389 151.674 203.612 151.524 204.724 150.952C205.836 150.38 206.786 149.41 207.455 148.167C208.124 146.923 208.481 145.461 208.481 143.966C208.479 141.961 207.838 140.038 206.697 138.62C205.556 137.202 204.009 136.404 202.396 136.401V136.404Z" fill="#292A2E"/>
<path d="M299.943 143.805H217.568C217.425 143.805 217.288 143.735 217.188 143.609C217.087 143.484 217.03 143.313 217.03 143.136C217.03 142.958 217.087 142.788 217.188 142.663C217.288 142.537 217.425 142.467 217.568 142.467H299.943C300.086 142.467 300.222 142.537 300.323 142.663C300.424 142.788 300.481 142.958 300.481 143.136C300.481 143.313 300.424 143.484 300.323 143.609C300.222 143.735 300.086 143.805 299.943 143.805Z" fill="#292A2E"/>
<path d="M312.053 143.805H310.344C310.201 143.805 310.064 143.735 309.963 143.609C309.862 143.484 309.805 143.313 309.805 143.136C309.805 142.958 309.862 142.788 309.963 142.663C310.064 142.537 310.201 142.467 310.344 142.467H312.053C312.196 142.467 312.333 142.537 312.434 142.663C312.535 142.788 312.591 142.958 312.591 143.136C312.591 143.313 312.535 143.484 312.434 143.609C312.333 143.735 312.196 143.805 312.053 143.805Z" fill="#292A2E"/>
<path d="M306.053 143.805H304.343C304.2 143.805 304.063 143.735 303.962 143.609C303.861 143.484 303.805 143.313 303.805 143.136C303.805 142.958 303.861 142.788 303.962 142.663C304.063 142.537 304.2 142.467 304.343 142.467H306.053C306.196 142.467 306.333 142.537 306.434 142.663C306.535 142.788 306.591 142.958 306.591 143.136C306.591 143.313 306.535 143.484 306.434 143.609C306.333 143.735 306.196 143.805 306.053 143.805Z" fill="#292A2E"/>
<path d="M318.464 143.805H316.754C316.611 143.805 316.474 143.735 316.373 143.609C316.272 143.484 316.215 143.313 316.215 143.136C316.215 142.958 316.272 142.788 316.373 142.663C316.474 142.537 316.611 142.467 316.754 142.467H318.464C318.606 142.467 318.743 142.537 318.844 142.663C318.945 142.788 319.002 142.958 319.002 143.136C319.002 143.313 318.945 143.484 318.844 143.609C318.743 143.735 318.606 143.805 318.464 143.805V143.805Z" fill="#292A2E"/>
<path d="M330.003 179.609H186.083V219.74H330.003V179.609Z" fill="#367CFF"/>
<g opacity="0.5">
<path d="M330.003 179.609H186.083V219.74H330.003V179.609Z" fill="white"/>
</g>
<path d="M330.003 220.409H186.083C185.94 220.409 185.804 220.339 185.703 220.213C185.602 220.088 185.545 219.917 185.545 219.74V179.606C185.545 179.429 185.602 179.259 185.703 179.133C185.804 179.008 185.94 178.937 186.083 178.937H330.003C330.146 178.937 330.283 179.008 330.384 179.133C330.485 179.259 330.541 179.429 330.541 179.606V219.737C330.542 219.825 330.528 219.912 330.501 219.994C330.474 220.075 330.435 220.149 330.385 220.212C330.335 220.274 330.275 220.324 330.21 220.358C330.144 220.392 330.074 220.409 330.003 220.409V220.409ZM186.622 219.071H329.465V180.275H186.622V219.071Z" fill="#292A2E"/>
<path d="M202.395 207.908C206.054 207.908 209.02 204.222 209.02 199.675C209.02 195.128 206.054 191.442 202.395 191.442C198.737 191.442 195.771 195.128 195.771 199.675C195.771 204.222 198.737 207.908 202.395 207.908Z" fill="white"/>
<path d="M202.396 208.577C200.979 208.577 199.595 208.055 198.417 207.077C197.239 206.099 196.321 204.709 195.779 203.083C195.237 201.456 195.095 199.667 195.372 197.941C195.648 196.214 196.33 194.628 197.332 193.384C198.333 192.139 199.609 191.291 200.999 190.948C202.388 190.604 203.828 190.781 205.136 191.454C206.445 192.128 207.564 193.269 208.351 194.732C209.137 196.196 209.557 197.917 209.557 199.677C209.555 202.036 208.8 204.298 207.457 205.967C206.115 207.635 204.294 208.574 202.396 208.577V208.577ZM202.396 192.115C201.192 192.115 200.016 192.559 199.015 193.39C198.015 194.22 197.235 195.401 196.774 196.783C196.314 198.165 196.193 199.685 196.428 201.152C196.663 202.619 197.242 203.966 198.093 205.024C198.944 206.081 200.028 206.801 201.209 207.093C202.389 207.385 203.612 207.235 204.724 206.663C205.836 206.091 206.786 205.121 207.455 203.878C208.124 202.634 208.481 201.172 208.481 199.677C208.479 197.672 207.838 195.749 206.697 194.331C205.556 192.913 204.009 192.115 202.396 192.112V192.115Z" fill="#292A2E"/>
<path d="M299.943 199.518H217.568C217.425 199.518 217.288 199.447 217.188 199.322C217.087 199.196 217.03 199.026 217.03 198.848C217.03 198.671 217.087 198.501 217.188 198.375C217.288 198.25 217.425 198.179 217.568 198.179H299.943C300.086 198.179 300.222 198.25 300.323 198.375C300.424 198.501 300.481 198.671 300.481 198.848C300.481 199.026 300.424 199.196 300.323 199.322C300.222 199.447 300.086 199.518 299.943 199.518Z" fill="#292A2E"/>
<path d="M312.053 199.518H310.344C310.201 199.518 310.064 199.447 309.963 199.322C309.862 199.196 309.805 199.026 309.805 198.848C309.805 198.671 309.862 198.501 309.963 198.375C310.064 198.25 310.201 198.179 310.344 198.179H312.053C312.196 198.179 312.333 198.25 312.434 198.375C312.535 198.501 312.591 198.671 312.591 198.848C312.591 199.026 312.535 199.196 312.434 199.322C312.333 199.447 312.196 199.518 312.053 199.518Z" fill="#292A2E"/>
<path d="M306.053 199.518H304.343C304.2 199.518 304.063 199.447 303.962 199.322C303.861 199.196 303.805 199.026 303.805 198.848C303.805 198.671 303.861 198.501 303.962 198.375C304.063 198.25 304.2 198.179 304.343 198.179H306.053C306.196 198.179 306.333 198.25 306.434 198.375C306.535 198.501 306.591 198.671 306.591 198.848C306.591 199.026 306.535 199.196 306.434 199.322C306.333 199.447 306.196 199.518 306.053 199.518Z" fill="#292A2E"/>
<path d="M318.464 199.518H316.754C316.611 199.518 316.474 199.447 316.373 199.322C316.272 199.196 316.215 199.026 316.215 198.848C316.215 198.671 316.272 198.501 316.373 198.375C316.474 198.25 316.611 198.179 316.754 198.179H318.464C318.606 198.179 318.743 198.25 318.844 198.375C318.945 198.501 319.002 198.671 319.002 198.848C319.002 199.026 318.945 199.196 318.844 199.322C318.743 199.447 318.606 199.518 318.464 199.518V199.518Z" fill="#292A2E"/>
<path d="M330.003 235.32H186.083V275.45H330.003V235.32Z" fill="#367CFF"/>
<g opacity="0.5">
<path d="M330.003 235.32H186.083V275.45H330.003V235.32Z" fill="white"/>
</g>
<path d="M330.003 276.12H186.083C185.94 276.12 185.804 276.049 185.703 275.924C185.602 275.798 185.545 275.628 185.545 275.45V235.32C185.545 235.143 185.602 234.972 185.703 234.847C185.804 234.721 185.94 234.651 186.083 234.651H330.003C330.146 234.651 330.283 234.721 330.384 234.847C330.485 234.972 330.541 235.143 330.541 235.32V275.45C330.541 275.628 330.485 275.798 330.384 275.924C330.283 276.049 330.146 276.12 330.003 276.12V276.12ZM186.622 274.781H329.465V235.989H186.622V274.781Z" fill="#292A2E"/>
<path d="M202.395 263.618C206.054 263.618 209.02 259.932 209.02 255.385C209.02 250.838 206.054 247.152 202.395 247.152C198.737 247.152 195.771 250.838 195.771 255.385C195.771 259.932 198.737 263.618 202.395 263.618Z" fill="white"/>
<path d="M202.396 264.287C200.979 264.287 199.595 263.765 198.417 262.787C197.239 261.809 196.321 260.419 195.779 258.793C195.237 257.167 195.095 255.377 195.372 253.651C195.648 251.925 196.33 250.339 197.332 249.094C198.333 247.849 199.609 247.002 200.999 246.658C202.388 246.315 203.828 246.491 205.136 247.165C206.445 247.838 207.564 248.979 208.351 250.443C209.137 251.906 209.557 253.627 209.557 255.387C209.555 257.747 208.8 260.009 207.457 261.677C206.115 263.345 204.294 264.284 202.396 264.287V264.287ZM202.396 247.822C201.192 247.822 200.016 248.266 199.015 249.097C198.015 249.928 197.235 251.109 196.774 252.49C196.314 253.872 196.193 255.392 196.428 256.859C196.663 258.326 197.242 259.673 198.093 260.731C198.944 261.788 200.028 262.509 201.209 262.8C202.389 263.092 203.612 262.942 204.724 262.37C205.836 261.798 206.786 260.829 207.455 259.585C208.124 258.341 208.481 256.88 208.481 255.384C208.478 253.379 207.837 251.458 206.696 250.04C205.555 248.622 204.009 247.825 202.396 247.822Z" fill="#292A2E"/>
<path d="M299.943 255.228H217.568C217.425 255.228 217.288 255.158 217.188 255.032C217.087 254.907 217.03 254.736 217.03 254.559C217.03 254.381 217.087 254.211 217.188 254.086C217.288 253.96 217.425 253.89 217.568 253.89H299.943C300.086 253.89 300.222 253.96 300.323 254.086C300.424 254.211 300.481 254.381 300.481 254.559C300.481 254.736 300.424 254.907 300.323 255.032C300.222 255.158 300.086 255.228 299.943 255.228Z" fill="#292A2E"/>
<path d="M312.053 255.228H310.344C310.201 255.228 310.064 255.158 309.963 255.032C309.862 254.907 309.805 254.736 309.805 254.559C309.805 254.381 309.862 254.211 309.963 254.086C310.064 253.96 310.201 253.89 310.344 253.89H312.053C312.196 253.89 312.333 253.96 312.434 254.086C312.535 254.211 312.591 254.381 312.591 254.559C312.591 254.736 312.535 254.907 312.434 255.032C312.333 255.158 312.196 255.228 312.053 255.228Z" fill="#292A2E"/>
<path d="M306.053 255.228H304.343C304.2 255.228 304.063 255.158 303.962 255.032C303.861 254.907 303.805 254.736 303.805 254.559C303.805 254.381 303.861 254.211 303.962 254.086C304.063 253.96 304.2 253.89 304.343 253.89H306.053C306.196 253.89 306.333 253.96 306.434 254.086C306.535 254.211 306.591 254.381 306.591 254.559C306.591 254.736 306.535 254.907 306.434 255.032C306.333 255.158 306.196 255.228 306.053 255.228Z" fill="#292A2E"/>
<path d="M318.464 255.228H316.754C316.611 255.228 316.474 255.158 316.373 255.032C316.272 254.907 316.215 254.736 316.215 254.559C316.215 254.381 316.272 254.211 316.373 254.086C316.474 253.96 316.611 253.89 316.754 253.89H318.464C318.606 253.89 318.743 253.96 318.844 254.086C318.945 254.211 319.002 254.381 319.002 254.559C319.002 254.736 318.945 254.907 318.844 255.032C318.743 255.158 318.606 255.228 318.464 255.228V255.228Z" fill="#292A2E"/>
<path d="M330.003 331.831H186.083C185.94 331.831 185.804 331.76 185.703 331.634C185.602 331.509 185.545 331.339 185.545 331.161V291.031C185.545 290.854 185.602 290.683 185.703 290.558C185.804 290.432 185.94 290.362 186.083 290.362H330.003C330.146 290.362 330.283 290.432 330.384 290.558C330.485 290.683 330.541 290.854 330.541 291.031V331.161C330.541 331.339 330.485 331.509 330.384 331.634C330.283 331.76 330.146 331.831 330.003 331.831ZM186.622 330.492H329.465V291.7H186.622V330.492Z" fill="#292A2E"/>
<path d="M274.792 291.031H125.487V331.161H274.792V291.031Z" fill="#367CFF"/>
<g opacity="0.5">
<path d="M274.792 291.031H125.487V331.161H274.792V291.031Z" fill="white"/>
</g>
<path d="M274.791 331.831H125.487C125.345 331.831 125.208 331.76 125.107 331.634C125.006 331.509 124.949 331.339 124.949 331.161V291.031C124.949 290.854 125.006 290.683 125.107 290.558C125.208 290.432 125.345 290.362 125.487 290.362H274.791C274.934 290.362 275.07 290.432 275.171 290.558C275.272 290.683 275.329 290.854 275.329 291.031V331.161C275.329 331.339 275.272 331.509 275.171 331.634C275.07 331.76 274.934 331.831 274.791 331.831ZM126.025 330.492H274.252V291.7H126.026L126.025 330.492Z" fill="#292A2E"/>
<path d="M141.8 319.329C145.459 319.329 148.425 315.643 148.425 311.096C148.425 306.549 145.459 302.863 141.8 302.863C138.141 302.863 135.175 306.549 135.175 311.096C135.175 315.643 138.141 319.329 141.8 319.329Z" fill="white"/>
<path d="M141.8 319.999C140.383 319.999 138.999 319.477 137.821 318.499C136.643 317.521 135.725 316.131 135.183 314.505C134.641 312.878 134.499 311.089 134.776 309.362C135.052 307.636 135.734 306.05 136.736 304.805C137.737 303.561 139.013 302.713 140.403 302.37C141.792 302.026 143.232 302.203 144.541 302.876C145.849 303.55 146.968 304.691 147.755 306.154C148.542 307.618 148.962 309.338 148.962 311.099C148.959 313.458 148.204 315.72 146.861 317.388C145.519 319.057 143.698 319.996 141.8 319.999V319.999ZM141.8 303.537C140.596 303.537 139.42 303.981 138.419 304.811C137.419 305.642 136.639 306.823 136.178 308.205C135.718 309.587 135.597 311.107 135.832 312.574C136.067 314.041 136.646 315.388 137.497 316.446C138.348 317.503 139.432 318.223 140.613 318.515C141.793 318.807 143.017 318.657 144.128 318.085C145.24 317.512 146.191 316.543 146.859 315.3C147.528 314.056 147.885 312.594 147.885 311.099C147.883 309.093 147.242 307.17 146.101 305.752C144.961 304.333 143.414 303.535 141.8 303.532V303.537Z" fill="#292A2E"/>
<path d="M244.732 310.939H156.973C156.83 310.939 156.693 310.868 156.592 310.743C156.491 310.617 156.434 310.447 156.434 310.27C156.434 310.092 156.491 309.922 156.592 309.797C156.693 309.671 156.83 309.601 156.973 309.601H244.732C244.874 309.601 245.011 309.671 245.112 309.797C245.213 309.922 245.27 310.092 245.27 310.27C245.27 310.447 245.213 310.617 245.112 310.743C245.011 310.868 244.874 310.939 244.732 310.939Z" fill="#292A2E"/>
<path d="M256.841 310.939H255.132C254.989 310.939 254.852 310.868 254.751 310.743C254.65 310.617 254.593 310.447 254.593 310.27C254.593 310.092 254.65 309.922 254.751 309.797C254.852 309.671 254.989 309.601 255.132 309.601H256.841C256.984 309.601 257.121 309.671 257.222 309.797C257.323 309.922 257.38 310.092 257.38 310.27C257.38 310.447 257.323 310.617 257.222 310.743C257.121 310.868 256.984 310.939 256.841 310.939Z" fill="#292A2E"/>
<path d="M250.842 310.939H249.132C248.99 310.939 248.853 310.868 248.752 310.743C248.651 310.617 248.594 310.447 248.594 310.27C248.594 310.092 248.651 309.922 248.752 309.797C248.853 309.671 248.99 309.601 249.132 309.601H250.842C250.984 309.601 251.121 309.671 251.222 309.797C251.323 309.922 251.38 310.092 251.38 310.27C251.38 310.447 251.323 310.617 251.222 310.743C251.121 310.868 250.984 310.939 250.842 310.939V310.939Z" fill="#292A2E"/>
<path d="M263.252 310.939H261.544C261.402 310.939 261.265 310.868 261.164 310.743C261.063 310.617 261.006 310.447 261.006 310.27C261.006 310.092 261.063 309.922 261.164 309.797C261.265 309.671 261.402 309.601 261.544 309.601H263.254C263.397 309.601 263.534 309.671 263.635 309.797C263.736 309.922 263.792 310.092 263.792 310.27C263.792 310.447 263.736 310.617 263.635 310.743C263.534 310.868 263.397 310.939 263.254 310.939H263.252Z" fill="#292A2E"/>
<path d="M330.003 346.741H186.083V386.872H330.003V346.741Z" fill="#367CFF"/>
<g opacity="0.5">
<path d="M330.003 346.741H186.083V386.872H330.003V346.741Z" fill="white"/>
</g>
<path d="M330.003 387.541H186.083C185.94 387.541 185.804 387.47 185.703 387.345C185.602 387.219 185.545 387.049 185.545 386.872V346.741C185.545 346.564 185.602 346.394 185.703 346.268C185.804 346.143 185.94 346.072 186.083 346.072H330.003C330.146 346.072 330.283 346.143 330.384 346.268C330.485 346.394 330.541 346.564 330.541 346.741V386.872C330.541 387.049 330.485 387.219 330.384 387.345C330.283 387.47 330.146 387.541 330.003 387.541ZM186.622 386.203H329.465V347.411H186.622V386.203Z" fill="#292A2E"/>
<path d="M202.395 375.039C206.054 375.039 209.02 371.353 209.02 366.807C209.02 362.26 206.054 358.574 202.395 358.574C198.737 358.574 195.771 362.26 195.771 366.807C195.771 371.353 198.737 375.039 202.395 375.039Z" fill="white"/>
<path d="M202.396 375.708C200.979 375.708 199.595 375.186 198.417 374.208C197.239 373.23 196.321 371.84 195.779 370.214C195.237 368.587 195.095 366.798 195.372 365.071C195.648 363.345 196.33 361.759 197.332 360.514C198.333 359.27 199.609 358.422 200.999 358.079C202.388 357.735 203.828 357.912 205.136 358.585C206.445 359.259 207.564 360.4 208.351 361.863C209.137 363.327 209.557 365.047 209.557 366.808C209.555 369.167 208.8 371.429 207.457 373.097C206.115 374.766 204.294 375.705 202.396 375.708V375.708ZM202.396 359.243C201.192 359.243 200.016 359.686 199.015 360.517C198.015 361.348 197.235 362.529 196.774 363.911C196.314 365.292 196.193 366.813 196.428 368.28C196.663 369.746 197.242 371.094 198.093 372.151C198.944 373.209 200.028 373.929 201.209 374.221C202.389 374.513 203.612 374.363 204.724 373.79C205.836 373.218 206.786 372.249 207.455 371.005C208.124 369.762 208.481 368.3 208.481 366.804C208.478 364.8 207.837 362.878 206.696 361.46C205.555 360.043 204.009 359.245 202.396 359.243V359.243Z" fill="#292A2E"/>
<path d="M299.943 366.649H217.568C217.425 366.649 217.288 366.579 217.188 366.453C217.087 366.328 217.03 366.158 217.03 365.98C217.03 365.803 217.087 365.633 217.188 365.507C217.288 365.382 217.425 365.311 217.568 365.311H299.943C300.086 365.311 300.222 365.382 300.323 365.507C300.424 365.633 300.481 365.803 300.481 365.98C300.481 366.158 300.424 366.328 300.323 366.453C300.222 366.579 300.086 366.649 299.943 366.649Z" fill="#292A2E"/>
<path d="M312.053 366.649H310.344C310.201 366.649 310.064 366.579 309.963 366.453C309.862 366.328 309.805 366.158 309.805 365.98C309.805 365.803 309.862 365.633 309.963 365.507C310.064 365.382 310.201 365.311 310.344 365.311H312.053C312.196 365.311 312.333 365.382 312.434 365.507C312.535 365.633 312.591 365.803 312.591 365.98C312.591 366.158 312.535 366.328 312.434 366.453C312.333 366.579 312.196 366.649 312.053 366.649Z" fill="#292A2E"/>
<path d="M306.053 366.649H304.343C304.2 366.649 304.063 366.579 303.962 366.453C303.861 366.328 303.805 366.158 303.805 365.98C303.805 365.803 303.861 365.633 303.962 365.507C304.063 365.382 304.2 365.311 304.343 365.311H306.053C306.196 365.311 306.333 365.382 306.434 365.507C306.535 365.633 306.591 365.803 306.591 365.98C306.591 366.158 306.535 366.328 306.434 366.453C306.333 366.579 306.196 366.649 306.053 366.649Z" fill="#292A2E"/>
<path d="M318.464 366.649H316.754C316.611 366.649 316.474 366.579 316.373 366.453C316.272 366.328 316.215 366.158 316.215 365.98C316.215 365.803 316.272 365.633 316.373 365.507C316.474 365.382 316.611 365.311 316.754 365.311H318.464C318.606 365.311 318.743 365.382 318.844 365.507C318.945 365.633 319.002 365.803 319.002 365.98C319.002 366.158 318.945 366.328 318.844 366.453C318.743 366.579 318.606 366.649 318.464 366.649V366.649Z" fill="#292A2E"/>
<path d="M330.003 402.452H186.083V442.583H330.003V402.452Z" fill="#367CFF"/>
<g opacity="0.5">
<path d="M330.003 402.452H186.083V442.583H330.003V402.452Z" fill="white"/>
</g>
<path d="M330.003 443.252H186.083C185.94 443.252 185.804 443.181 185.703 443.056C185.602 442.93 185.545 442.76 185.545 442.583V402.452C185.545 402.275 185.602 402.105 185.703 401.979C185.804 401.854 185.94 401.783 186.083 401.783H330.003C330.146 401.783 330.283 401.854 330.384 401.979C330.485 402.105 330.541 402.275 330.541 402.452V442.583C330.541 442.76 330.485 442.93 330.384 443.056C330.283 443.181 330.146 443.252 330.003 443.252ZM186.622 441.914H329.465V403.122H186.622V441.914Z" fill="#292A2E"/>
<path d="M202.395 430.75C206.054 430.75 209.02 427.064 209.02 422.517C209.02 417.971 206.054 414.285 202.395 414.285C198.737 414.285 195.771 417.971 195.771 422.517C195.771 427.064 198.737 430.75 202.395 430.75Z" fill="white"/>
<path d="M202.396 431.416C200.979 431.416 199.595 430.894 198.417 429.916C197.239 428.938 196.321 427.548 195.779 425.922C195.237 424.296 195.095 422.506 195.372 420.78C195.648 419.053 196.33 417.468 197.332 416.223C198.333 414.978 199.609 414.131 200.999 413.787C202.388 413.444 203.828 413.62 205.136 414.294C206.445 414.967 207.564 416.108 208.351 417.572C209.137 419.035 209.557 420.756 209.557 422.516C209.555 424.876 208.8 427.138 207.457 428.806C206.115 430.474 204.294 431.413 202.396 431.416V431.416ZM202.396 414.955C201.192 414.955 200.016 415.398 199.015 416.229C198.015 417.06 197.235 418.241 196.774 419.623C196.314 421.004 196.193 422.525 196.428 423.991C196.663 425.458 197.242 426.806 198.093 427.863C198.944 428.921 200.028 429.641 201.209 429.933C202.389 430.224 203.612 430.075 204.724 429.502C205.836 428.93 206.786 427.961 207.455 426.717C208.124 425.474 208.481 424.012 208.481 422.516C208.478 420.512 207.837 418.59 206.696 417.172C205.555 415.755 204.009 414.957 202.396 414.955V414.955Z" fill="#292A2E"/>
<path d="M299.943 422.36H217.568C217.425 422.36 217.288 422.29 217.188 422.164C217.087 422.039 217.03 421.869 217.03 421.691C217.03 421.514 217.087 421.343 217.188 421.218C217.288 421.092 217.425 421.022 217.568 421.022H299.943C300.086 421.022 300.222 421.092 300.323 421.218C300.424 421.343 300.481 421.514 300.481 421.691C300.481 421.869 300.424 422.039 300.323 422.164C300.222 422.29 300.086 422.36 299.943 422.36Z" fill="#292A2E"/>
<path d="M312.053 422.36H310.344C310.201 422.36 310.064 422.29 309.963 422.164C309.862 422.039 309.805 421.869 309.805 421.691C309.805 421.514 309.862 421.343 309.963 421.218C310.064 421.092 310.201 421.022 310.344 421.022H312.053C312.196 421.022 312.333 421.092 312.434 421.218C312.535 421.343 312.591 421.514 312.591 421.691C312.591 421.869 312.535 422.039 312.434 422.164C312.333 422.29 312.196 422.36 312.053 422.36Z" fill="#292A2E"/>
<path d="M306.053 422.36H304.343C304.2 422.36 304.063 422.29 303.962 422.164C303.861 422.039 303.805 421.869 303.805 421.691C303.805 421.514 303.861 421.343 303.962 421.218C304.063 421.092 304.2 421.022 304.343 421.022H306.053C306.196 421.022 306.333 421.092 306.434 421.218C306.535 421.343 306.591 421.514 306.591 421.691C306.591 421.869 306.535 422.039 306.434 422.164C306.333 422.29 306.196 422.36 306.053 422.36Z" fill="#292A2E"/>
<path d="M318.464 422.36H316.754C316.611 422.36 316.474 422.29 316.373 422.164C316.272 422.039 316.215 421.869 316.215 421.691C316.215 421.514 316.272 421.343 316.373 421.218C316.474 421.092 316.611 421.022 316.754 421.022H318.464C318.606 421.022 318.743 421.092 318.844 421.218C318.945 421.343 319.002 421.514 319.002 421.691C319.002 421.869 318.945 422.039 318.844 422.164C318.743 422.29 318.606 422.36 318.464 422.36V422.36Z" fill="#292A2E"/>
<path d="M330.003 458.163H186.083V498.293H330.003V458.163Z" fill="#367CFF"/>
<g opacity="0.5">
<path d="M330.003 458.163H186.083V498.293H330.003V458.163Z" fill="white"/>
</g>
<path d="M330.003 498.963H186.083C185.94 498.963 185.804 498.892 185.703 498.767C185.602 498.641 185.545 498.471 185.545 498.294V458.163C185.545 457.986 185.602 457.816 185.703 457.69C185.804 457.565 185.94 457.494 186.083 457.494H330.003C330.146 457.494 330.283 457.565 330.384 457.69C330.485 457.816 330.541 457.986 330.541 458.163V498.294C330.541 498.471 330.485 498.641 330.384 498.767C330.283 498.892 330.146 498.963 330.003 498.963ZM186.622 497.625H329.465V458.832H186.622V497.625Z" fill="#292A2E"/>
<path d="M202.395 486.461C206.054 486.461 209.02 482.775 209.02 478.228C209.02 473.682 206.054 469.996 202.395 469.996C198.737 469.996 195.771 473.682 195.771 478.228C195.771 482.775 198.737 486.461 202.395 486.461Z" fill="white"/>
<path d="M202.396 487.13C200.979 487.13 199.595 486.608 198.417 485.63C197.239 484.652 196.321 483.262 195.779 481.636C195.237 480.009 195.095 478.22 195.372 476.493C195.648 474.767 196.33 473.181 197.332 471.936C198.333 470.692 199.609 469.844 200.999 469.501C202.388 469.157 203.828 469.333 205.136 470.007C206.445 470.681 207.564 471.821 208.351 473.285C209.137 474.749 209.557 476.469 209.557 478.23C209.555 480.589 208.8 482.851 207.457 484.519C206.115 486.188 204.294 487.126 202.396 487.13V487.13ZM202.396 470.665C201.192 470.665 200.016 471.108 199.015 471.939C198.015 472.77 197.235 473.951 196.774 475.333C196.314 476.714 196.193 478.235 196.428 479.701C196.663 481.168 197.242 482.516 198.093 483.573C198.944 484.631 200.028 485.351 201.209 485.643C202.389 485.934 203.612 485.785 204.724 485.212C205.836 484.64 206.786 483.671 207.455 482.427C208.124 481.184 208.481 479.722 208.481 478.226C208.478 476.222 207.837 474.3 206.696 472.882C205.555 471.465 204.009 470.667 202.396 470.665V470.665Z" fill="#292A2E"/>
<path d="M299.943 478.071H217.568C217.425 478.071 217.288 478.001 217.188 477.875C217.087 477.75 217.03 477.58 217.03 477.402C217.03 477.225 217.087 477.054 217.188 476.929C217.288 476.803 217.425 476.733 217.568 476.733H299.943C300.086 476.733 300.222 476.803 300.323 476.929C300.424 477.054 300.481 477.225 300.481 477.402C300.481 477.58 300.424 477.75 300.323 477.875C300.222 478.001 300.086 478.071 299.943 478.071Z" fill="#292A2E"/>
<path d="M312.053 478.071H310.344C310.201 478.071 310.064 478.001 309.963 477.875C309.862 477.75 309.805 477.58 309.805 477.402C309.805 477.225 309.862 477.054 309.963 476.929C310.064 476.803 310.201 476.733 310.344 476.733H312.053C312.196 476.733 312.333 476.803 312.434 476.929C312.535 477.054 312.591 477.225 312.591 477.402C312.591 477.58 312.535 477.75 312.434 477.875C312.333 478.001 312.196 478.071 312.053 478.071Z" fill="#292A2E"/>
<path d="M306.053 478.071H304.343C304.2 478.071 304.063 478.001 303.962 477.875C303.861 477.75 303.805 477.58 303.805 477.402C303.805 477.225 303.861 477.054 303.962 476.929C304.063 476.803 304.2 476.733 304.343 476.733H306.053C306.196 476.733 306.333 476.803 306.434 476.929C306.535 477.054 306.591 477.225 306.591 477.402C306.591 477.58 306.535 477.75 306.434 477.875C306.333 478.001 306.196 478.071 306.053 478.071Z" fill="#292A2E"/>
<path d="M318.464 478.071H316.754C316.611 478.071 316.474 478.001 316.373 477.875C316.272 477.75 316.215 477.58 316.215 477.402C316.215 477.225 316.272 477.054 316.373 476.929C316.474 476.803 316.611 476.733 316.754 476.733H318.464C318.606 476.733 318.743 476.803 318.844 476.929C318.945 477.054 319.002 477.225 319.002 477.402C319.002 477.58 318.945 477.75 318.844 477.875C318.743 478.001 318.606 478.071 318.464 478.071V478.071Z" fill="#292A2E"/>
<path d="M22.6449 499.954C22.6449 499.954 16.6221 511.017 23.1931 520.215C29.7641 529.414 22.6832 534.449 22.6832 534.449L-4.01648 501.27L9.32364 484.692L22.6449 499.954Z" fill="#367CFF"/>
<path d="M24.0643 272.409C24.0643 272.409 24.1828 268.467 24.158 277.41C24.116 292.26 25.2532 331.505 24.4541 382.086C23.8155 422.518 1.16736 491.897 1.16736 491.897L21.5943 510.118C21.5943 510.118 52.3212 448.183 57.1976 386.87C59.694 355.486 64.8003 271.052 64.8003 271.052L24.0643 272.409Z" fill="#262626"/>
<path d="M87.0969 511.642C87.0969 511.642 89.1329 524.758 99.0138 525.487C108.895 526.217 106.752 536 106.752 536H68.9929V512.556L87.0969 511.642Z" fill="#367CFF"/>
<path d="M91.8963 275C91.8963 275 94.9957 389.007 94.6737 394.581L91.759 519.15L67.3575 519.71L63.4224 390.076C63.4224 390.076 60.8436 354.316 53.8914 321.111C50.3336 304.068 48.1923 286.617 47.5013 269.031V269.031L91.8963 275Z" fill="#262626"/>
<path d="M59.7047 355.831L61.7396 317.161C61.7396 317.161 63.8294 333.237 63.8294 347.094C63.8294 353.867 62.7067 380.682 62.7067 380.682L59.7047 355.831Z" fill="#0A0A0A"/>
<path d="M23.7945 272.406L23.7137 272.411C23.7137 272.411 23.7724 270.467 23.7945 272.406Z" fill="#333333"/>
<path d="M23.8969 272.406L23.8156 272.411C23.8156 272.411 23.8742 270.467 23.8969 272.406Z" fill="#333333"/>
<path d="M39.8749 128.383C39.8749 128.383 37.909 141.402 35.075 145.81C26.9166 158.501 23.4521 173.626 29.526 182.699C35.6 191.771 79.2761 198.375 84.3679 180.337C88.6546 165.152 82.837 162.586 82.62 149.502C82.522 143.581 81.8855 131.099 81.8855 131.099" fill="#0A0A0A"/>
<path d="M75.3065 173.458C75.2305 173.446 74.3878 190.824 58.1426 189.309C46.8956 188.262 42.8856 173.434 42.6282 173.434C43.8403 173.113 45.8827 172.647 46.4212 172.29C48.1922 171.108 50.3833 169.881 50.954 165.604C51.283 163.14 50.7246 150.538 50.8964 148.046L68.1604 152.834C67.9192 158.098 66.2305 170.299 72.1483 172.461C73.1327 172.817 74.1934 173.146 75.3065 173.458Z" fill="#E98862"/>
<path opacity="0.52" d="M68.4022 167.473C68.1318 166.39 67.9577 165.273 67.8831 164.143C67.6931 161.564 67.7308 158.968 67.9956 156.399C64.4869 155.81 61.1813 154.011 58.4544 151.204C58.134 152.676 56.3711 159.104 56.8589 160.506C57.7819 163.144 62.1177 167.473 68.4022 167.473Z" fill="#0C0C0C"/>
<path d="M65.3382 163.274C58.4996 163.083 50.0806 158.425 49.3456 146.971L48.6822 136.636C47.9466 125.183 52.1914 115.418 60.8689 114.558C69.5469 113.697 76.6294 122.339 77.3644 133.792L77.6585 138.367C77.9401 142.762 77.5357 163.616 65.3382 163.274Z" fill="#E98862"/>
<path d="M74.79 140.817C75.3821 140.817 75.8621 140.221 75.8621 139.485C75.8621 138.749 75.3821 138.153 74.79 138.153C74.1979 138.153 73.7179 138.749 73.7179 139.485C73.7179 140.221 74.1979 140.817 74.79 140.817Z" fill="#0C0C0C"/>
<path d="M63.9511 140.901C64.5432 140.901 65.0232 140.304 65.0232 139.569C65.0232 138.833 64.5432 138.236 63.9511 138.236C63.359 138.236 62.879 138.833 62.879 139.569C62.879 140.304 63.359 140.901 63.9511 140.901Z" fill="#0C0C0C"/>
<path opacity="0.52" d="M69.3784 148.072H69.3956C69.7474 148.034 70.0972 147.971 70.4435 147.886C70.961 147.752 71.6443 147.51 71.6077 146.937C71.5662 146.284 69.6756 139.385 69.4597 138.601C69.4507 138.567 69.4363 138.535 69.4173 138.507C69.3983 138.48 69.3751 138.457 69.349 138.441C69.323 138.425 69.2946 138.415 69.2655 138.413C69.2364 138.41 69.2072 138.415 69.1796 138.427C69.152 138.439 69.1266 138.457 69.1048 138.481C69.083 138.505 69.0653 138.534 69.0527 138.567C69.04 138.6 69.0328 138.635 69.0313 138.671C69.0298 138.707 69.0341 138.744 69.044 138.778C69.8517 141.715 71.1441 146.54 71.1699 146.98C71.0961 147.172 70.233 147.44 69.3606 147.527C69.3036 147.532 69.2503 147.564 69.2122 147.617C69.174 147.67 69.154 147.74 69.1563 147.811C69.1586 147.882 69.1831 147.949 69.2246 147.998C69.266 148.046 69.3212 148.073 69.3784 148.072V148.072Z" fill="#0C0C0C"/>
<path opacity="0.52" d="M67.6989 152.749C69.1054 152.711 70.485 152.263 71.7267 151.441C71.7524 151.425 71.7754 151.402 71.7942 151.375C71.8129 151.348 71.8272 151.316 71.8362 151.282C71.8452 151.248 71.8487 151.212 71.8465 151.177C71.8443 151.141 71.8364 151.106 71.8234 151.074C71.8103 151.042 71.7923 151.014 71.7704 150.99C71.7485 150.967 71.7231 150.949 71.6957 150.938C71.6403 150.915 71.58 150.921 71.528 150.954C68.8486 152.646 66.3323 152.64 64.2516 150.938C64.2098 150.902 64.1663 150.869 64.1213 150.839C64.0694 150.811 64.0106 150.808 63.9574 150.833C63.9042 150.857 63.8606 150.906 63.8358 150.969C63.8109 151.033 63.8068 151.106 63.8242 151.173C63.8416 151.24 63.8792 151.296 63.9291 151.329C63.9452 151.341 63.9727 151.363 64.0104 151.396C65.1042 152.293 66.3885 152.764 67.6989 152.749V152.749Z" fill="#0C0C0C"/>
<path d="M41.5722 139.255L49.3461 138.54C55.3717 136.41 58.1954 124.223 58.1954 124.223C58.1954 124.223 64.4713 133.659 81.8855 131.104C81.8855 131.104 81.0336 101.192 55.1827 106.393C46.8476 108.066 40.1593 117.43 39.7053 131.077C39.3887 140.639 41.5722 139.255 41.5722 139.255Z" fill="#0A0A0A"/>
<path d="M50.1081 150.407C47.4696 150.669 45.1084 147.375 44.8979 144.097C44.6873 140.82 46.7093 138.801 49.3462 138.539L50.8464 140.6L52.3756 150.182L50.1081 150.407Z" fill="#E98862"/>
<path d="M71.4828 133.441C72.2893 132.937 73.1901 132.712 74.0906 132.79C74.5341 132.824 74.9709 132.942 75.3862 133.138C75.7979 133.329 76.1885 133.585 76.5487 133.898C76.6004 133.938 76.6373 134.002 76.6511 134.076C76.6649 134.149 76.6546 134.227 76.6225 134.291C76.5904 134.355 76.539 134.401 76.4798 134.418C76.4205 134.435 76.3581 134.423 76.3064 134.383L76.2908 134.371C75.9557 134.107 75.5951 133.897 75.2176 133.745C74.8447 133.592 74.4553 133.511 74.0626 133.503C73.2846 133.48 72.5155 133.713 71.8333 134.179L71.8113 134.195C71.7322 134.246 71.6401 134.257 71.5545 134.226C71.4689 134.195 71.3964 134.123 71.3521 134.027C71.3078 133.931 71.2952 133.817 71.3169 133.71C71.3387 133.602 71.3931 133.509 71.4688 133.45L71.4828 133.441Z" fill="#0C0C0C"/>
<path d="M64.5116 134.519C63.7797 134.19 62.9908 134.107 62.2247 134.279C61.8379 134.362 61.4634 134.517 61.1139 134.739C60.76 134.962 60.4298 135.239 60.1312 135.564L60.1177 135.578C60.0716 135.627 60.0117 135.652 59.951 135.646C59.8903 135.641 59.8338 135.606 59.7941 135.548C59.7543 135.491 59.7345 135.417 59.7389 135.341C59.7433 135.266 59.7717 135.196 59.8178 135.146C60.135 134.768 60.4892 134.441 60.8721 134.172C61.2588 133.899 61.6762 133.699 62.1106 133.58C62.9906 133.331 63.9083 133.381 64.7674 133.724C64.8119 133.74 64.8533 133.767 64.8892 133.804C64.9252 133.84 64.9548 133.885 64.9764 133.936C64.998 133.987 65.0112 134.042 65.015 134.1C65.0189 134.157 65.0135 134.215 64.999 134.27C64.9845 134.324 64.9613 134.375 64.9308 134.418C64.9002 134.461 64.863 134.496 64.8213 134.521C64.7795 134.546 64.7342 134.561 64.6879 134.563C64.6417 134.566 64.5954 134.557 64.552 134.537L64.538 134.531L64.5116 134.519Z" fill="#0C0C0C"/>
<path opacity="0.52" d="M67.7727 155.337C68.0271 155.335 68.2809 155.307 68.5314 155.252C68.584 155.234 68.6293 155.192 68.6584 155.134C68.6876 155.077 68.6985 155.008 68.6891 154.942C68.6797 154.875 68.6506 154.815 68.6075 154.773C68.5644 154.731 68.5104 154.711 68.456 154.716C68.0637 154.84 67.6547 154.859 67.2562 154.77C66.8578 154.682 66.4791 154.489 66.1454 154.204C66.1237 154.181 66.0985 154.163 66.0711 154.151C66.0438 154.14 66.0149 154.135 65.9861 154.137C65.9279 154.142 65.8737 154.175 65.8352 154.23C65.7968 154.284 65.7774 154.356 65.7812 154.428C65.7851 154.5 65.8119 154.568 65.8557 154.615C66.4083 155.124 67.0857 155.379 67.7727 155.337V155.337Z" fill="#0C0C0C"/>
<path d="M49.3731 138.421L49.3192 138.149C59.352 135.138 58.0123 123.038 57.9978 122.916L58.2202 122.875C58.2363 122.999 59.6094 135.346 49.3731 138.421Z" fill="#0C0C0C"/>
<path opacity="0.1" d="M62.4531 147.98C63.5811 147.98 64.4955 147.146 64.4955 146.118C64.4955 145.09 63.5811 144.256 62.4531 144.256C61.3251 144.256 60.4106 145.09 60.4106 146.118C60.4106 147.146 61.3251 147.98 62.4531 147.98Z" fill="#0C0C0C"/>
<path opacity="0.1" d="M74.594 145.673C74.594 146.7 75.5094 147.533 76.6402 147.535C76.8351 147.535 77.0294 147.51 77.2201 147.46C77.3881 146.26 77.5028 145.1 77.5777 144.021C77.278 143.879 76.9597 143.808 76.6391 143.811C75.5094 143.809 74.5951 144.642 74.594 145.673Z" fill="#0C0C0C"/>
<path d="M95.4905 211.718C94.979 219.188 92.4901 265.797 91.998 274.999H24.194C23.8106 266.702 22.0907 230.409 20.6401 214.179C19.2535 198.692 16.5332 190.938 18.5271 186.36C21.7854 178.877 30.6891 174.552 36.7598 173.531C40.4672 172.907 46.0431 172.46 46.0431 172.46C46.0431 172.46 46.5148 184.329 57.7721 184.989C73.0965 185.888 72.0734 172.46 72.1493 172.46C74.6317 172.46 88.814 174.413 92.2834 176.969C101.737 183.927 96.5771 195.886 95.4905 211.718Z" fill="#AD42AF"/>
<path d="M147.028 225.377C147.106 225.11 147.227 224.865 147.384 224.658C147.54 224.451 147.729 224.286 147.939 224.172C148.149 224.059 148.375 224 148.604 223.998C148.833 223.997 149.059 224.054 149.27 224.165C149.672 224.398 149.987 224.811 150.153 225.322C150.319 225.833 150.322 226.403 150.162 226.917L149.386 229.575L154.261 223.398C154.867 222.608 156.017 222.119 156.684 223.022C157.264 223.708 158.603 223.919 158.82 225.204C158.828 225.211 158.814 236.971 158.252 237.704C155.868 240.815 150.105 241.417 146.89 239.837L141.829 237.35L147.028 225.377Z" fill="#E98862"/>
<g opacity="0.1">
<path d="M147.028 225.377C147.106 225.11 147.227 224.865 147.384 224.658C147.54 224.451 147.729 224.286 147.939 224.172C148.149 224.059 148.375 224 148.604 223.998C148.833 223.997 149.059 224.054 149.27 224.165C149.672 224.398 149.987 224.811 150.153 225.322C150.319 225.833 150.322 226.403 150.162 226.917L149.386 229.575L154.261 223.398C154.867 222.608 156.017 222.119 156.684 223.022C157.264 223.708 158.603 223.919 158.82 225.204C158.828 225.211 158.814 236.971 158.252 237.704C155.868 240.815 150.105 241.417 146.89 239.837L141.829 237.35L147.028 225.377Z" fill="#0C0C0C"/>
</g>
<path d="M119.217 198.343L119.284 202.552C119.298 202.989 119.23 203.424 119.085 203.823C118.94 204.222 118.722 204.573 118.449 204.849C118.176 205.126 117.855 205.319 117.512 205.415C117.168 205.51 116.811 205.505 116.469 205.4L81.543 198.075C81.2012 197.97 80.8443 197.964 80.5006 198.06C80.157 198.156 79.8359 198.349 79.5628 198.625C79.2898 198.902 79.0721 199.253 78.9272 199.652C78.7823 200.051 78.714 200.486 78.7278 200.924L75.5018 256.494C75.5579 257.477 75.8759 258.41 76.4058 259.143C76.9357 259.877 77.6472 260.371 78.4279 260.546L146.329 275.402C146.671 275.507 147.028 275.512 147.372 275.417C147.715 275.321 148.036 275.128 148.31 274.851C148.583 274.575 148.8 274.224 148.945 273.825C149.09 273.426 149.159 272.991 149.145 272.553L150.539 205.243C150.483 204.26 150.165 203.327 149.635 202.593C149.105 201.859 148.394 201.366 147.613 201.191L122.031 195.495C121.69 195.39 121.333 195.385 120.99 195.481C120.646 195.576 120.325 195.77 120.052 196.046C119.779 196.322 119.562 196.673 119.417 197.072C119.272 197.471 119.204 197.906 119.217 198.343V198.343Z" fill="#262626"/>
<path d="M146.818 276.119C146.625 276.119 146.432 276.098 146.242 276.058L78.3342 261.202C77.4325 260.995 76.6118 260.421 76.0015 259.57C75.3912 258.72 75.026 257.641 74.9634 256.504L78.191 200.874C78.1775 200.369 78.2549 199.866 78.4175 199.403C78.5802 198.94 78.824 198.528 79.1312 198.197C79.476 197.845 79.8788 197.593 80.3111 197.457C80.7434 197.321 81.1945 197.305 81.6324 197.41L116.559 204.733C116.841 204.809 117.132 204.804 117.412 204.721C117.693 204.638 117.954 204.478 118.178 204.253C118.369 204.041 118.519 203.779 118.617 203.486C118.715 203.193 118.76 202.876 118.746 202.559L118.679 198.35C118.661 197.835 118.737 197.322 118.9 196.849C119.063 196.376 119.309 195.954 119.621 195.615C119.966 195.263 120.368 195.011 120.801 194.875C121.233 194.739 121.684 194.723 122.122 194.828L147.709 200.525C148.615 200.722 149.44 201.293 150.052 202.145C150.664 202.998 151.025 204.083 151.079 205.223L149.684 272.563C149.699 273.072 149.622 273.579 149.46 274.047C149.297 274.515 149.052 274.932 148.743 275.267C148.205 275.829 147.521 276.132 146.818 276.119V276.119ZM81.0438 198.689C80.6029 198.676 80.1732 198.863 79.8344 199.213C79.6438 199.425 79.4939 199.687 79.3956 199.981C79.2973 200.274 79.2531 200.591 79.2663 200.908L76.0403 256.54C76.1001 257.358 76.375 258.129 76.8227 258.734C77.2705 259.339 77.866 259.743 78.5173 259.885L146.424 274.741C146.705 274.815 146.996 274.81 147.276 274.727C147.555 274.644 147.816 274.484 148.039 274.259C148.23 274.048 148.38 273.785 148.478 273.492C148.576 273.199 148.62 272.882 148.607 272.565L150.002 205.225C149.947 204.401 149.674 203.623 149.226 203.013C148.778 202.402 148.18 201.993 147.525 201.849L121.938 196.152C121.656 196.078 121.366 196.084 121.086 196.167C120.807 196.25 120.546 196.41 120.322 196.634C120.132 196.846 119.982 197.108 119.883 197.401C119.785 197.694 119.74 198.011 119.754 198.329L119.821 202.537C119.838 203.052 119.763 203.564 119.6 204.037C119.437 204.511 119.191 204.933 118.88 205.272C118.535 205.624 118.132 205.877 117.7 206.013C117.267 206.149 116.816 206.165 116.378 206.059L81.4514 198.735C81.3168 198.706 81.1805 198.69 81.0438 198.689Z" fill="#292A2E"/>
<path d="M140.087 261.4L84.7334 252.642L93.9187 162.992L138.684 170.075L147.862 185.513L140.087 261.4Z" fill="white"/>
<path d="M140.087 262.07C140.064 262.07 140.041 262.068 140.019 262.065L84.664 253.306C84.5223 253.284 84.3936 253.192 84.3061 253.052C84.2187 252.912 84.1797 252.734 84.1977 252.558L93.3824 162.907C93.4008 162.731 93.4743 162.571 93.587 162.462C93.7006 162.354 93.8433 162.306 93.9849 162.328L138.75 169.412C138.823 169.423 138.892 169.453 138.955 169.499C139.018 169.545 139.073 169.606 139.116 169.679L148.294 185.117C148.376 185.256 148.412 185.428 148.395 185.599L140.619 261.487C140.603 261.649 140.539 261.797 140.441 261.905C140.343 262.013 140.216 262.072 140.085 262.072L140.087 262.07ZM85.3354 252.063L139.621 260.653L147.3 185.695L138.388 170.706L94.3845 163.742L85.3354 252.063Z" fill="#292A2E"/>
<path d="M138.684 170.075L137.295 183.633L147.862 185.513L138.684 170.075Z" fill="white"/>
<path d="M147.862 186.182C147.836 186.182 147.811 186.18 147.786 186.175L137.219 184.295C137.079 184.271 136.952 184.178 136.867 184.039C136.781 183.899 136.743 183.723 136.761 183.549L138.15 169.99C138.163 169.857 138.208 169.732 138.279 169.631C138.35 169.53 138.444 169.458 138.549 169.424C138.653 169.391 138.764 169.397 138.865 169.442C138.967 169.487 139.055 169.569 139.119 169.677L148.297 185.115C148.356 185.215 148.392 185.333 148.4 185.456C148.409 185.58 148.389 185.704 148.344 185.814C148.299 185.925 148.231 186.018 148.146 186.083C148.061 186.147 147.963 186.182 147.863 186.182H147.862ZM137.896 183.063L146.664 184.623L139.049 171.815L137.896 183.063Z" fill="#292A2E"/>
<path d="M137.894 262L85.6182 237.747L111.053 153.081L153.329 172.694L159.424 190.331L137.894 262Z" fill="#367CFF"/>
<g opacity="0.43">
<path d="M137.894 262L85.6182 237.747L111.053 153.081L153.329 172.694L159.424 190.331L137.894 262Z" fill="white"/>
</g>
<path d="M137.895 262.669C137.83 262.669 137.767 262.655 137.706 262.627L85.4297 238.374C85.296 238.312 85.1876 238.186 85.1283 238.025C85.0691 237.864 85.0638 237.68 85.1136 237.513L110.548 152.846C110.573 152.764 110.611 152.688 110.659 152.624C110.707 152.56 110.765 152.508 110.829 152.471C110.894 152.435 110.963 152.415 111.034 152.412C111.105 152.408 111.175 152.423 111.241 152.454L153.518 172.068C153.586 172.099 153.649 172.148 153.701 172.21C153.754 172.272 153.796 172.347 153.825 172.43L159.919 190.066C159.974 190.225 159.977 190.403 159.929 190.564L138.399 262.233C138.361 262.361 138.292 262.471 138.202 262.549C138.112 262.627 138.004 262.669 137.895 262.669ZM86.309 237.354L137.577 261.139L158.843 190.348L152.925 173.221L111.367 153.941L86.309 237.354Z" fill="#292A2E"/>
<path d="M153.329 172.694L149.483 185.498L159.424 190.331L153.329 172.694Z" fill="white"/>
<path d="M159.424 191C159.357 191 159.291 190.984 159.228 190.954L149.287 186.122C149.155 186.058 149.049 185.932 148.992 185.772C148.934 185.611 148.93 185.429 148.979 185.264L152.825 172.461C152.863 172.335 152.93 172.227 153.017 172.149C153.105 172.072 153.209 172.028 153.317 172.025H153.33C153.435 172.025 153.538 172.063 153.626 172.135C153.714 172.208 153.783 172.31 153.825 172.43L159.919 190.066C159.955 190.168 159.97 190.28 159.962 190.391C159.955 190.502 159.925 190.608 159.876 190.701C159.827 190.794 159.76 190.871 159.681 190.923C159.602 190.976 159.514 191.004 159.424 191.003V191ZM150.173 185.116L158.422 189.125L153.365 174.491L150.173 185.116Z" fill="#292A2E"/>
<path d="M149.453 197.729C149.388 197.729 149.325 197.715 149.265 197.687L110.578 179.724C110.447 179.66 110.342 179.534 110.285 179.374C110.228 179.214 110.223 179.032 110.272 178.869C110.322 178.705 110.421 178.571 110.548 178.497C110.676 178.423 110.822 178.413 110.954 178.471L149.642 196.434C149.759 196.489 149.858 196.594 149.92 196.73C149.983 196.866 150.004 197.025 149.982 197.179C149.959 197.333 149.894 197.473 149.798 197.573C149.701 197.674 149.579 197.729 149.453 197.729H149.453Z" fill="#292A2E"/>
<path d="M146.587 206.592C146.522 206.591 146.459 206.577 146.399 206.549L107.712 188.586C107.581 188.521 107.476 188.396 107.419 188.236C107.362 188.076 107.357 187.894 107.407 187.73C107.456 187.566 107.555 187.433 107.682 187.359C107.81 187.284 107.956 187.275 108.089 187.333L146.776 205.295C146.894 205.35 146.993 205.455 147.056 205.591C147.118 205.728 147.14 205.887 147.117 206.041C147.095 206.196 147.03 206.336 146.933 206.436C146.836 206.537 146.714 206.592 146.587 206.592H146.587Z" fill="#292A2E"/>
<path d="M143.899 215.492C143.835 215.492 143.771 215.478 143.711 215.45L105.024 197.487C104.956 197.458 104.894 197.412 104.841 197.352C104.788 197.292 104.745 197.22 104.714 197.139C104.684 197.059 104.667 196.971 104.664 196.882C104.661 196.793 104.672 196.704 104.697 196.621C104.722 196.537 104.761 196.461 104.81 196.396C104.859 196.331 104.918 196.279 104.984 196.243C105.049 196.207 105.12 196.188 105.192 196.186C105.263 196.184 105.334 196.201 105.401 196.234L144.088 214.196C144.206 214.251 144.305 214.356 144.367 214.492C144.429 214.629 144.451 214.788 144.429 214.942C144.406 215.096 144.341 215.235 144.244 215.336C144.148 215.436 144.026 215.491 143.9 215.492H143.899Z" fill="#292A2E"/>
<path d="M127.253 198.343L126.661 202.552C126.533 203.467 126.117 204.281 125.505 204.815C124.894 205.349 124.136 205.559 123.4 205.4L89.6206 198.075C89.256 197.996 88.8824 198.007 88.5211 198.107C88.1599 198.208 87.8181 198.395 87.5153 198.66C87.2125 198.924 86.9546 199.261 86.7563 199.649C86.558 200.037 86.4232 200.47 86.3596 200.924L78.4705 257.124C78.3419 258.039 78.5112 258.98 78.941 259.74C79.3707 260.5 80.0259 261.017 80.7622 261.177L146.368 275.398C147.104 275.557 147.862 275.347 148.473 274.813C149.085 274.279 149.501 273.464 149.629 272.549L151.593 258.56L158.001 212.899L159.078 205.239C159.141 204.786 159.132 204.322 159.052 203.873C158.971 203.424 158.82 202.999 158.607 202.623C158.394 202.247 158.124 201.926 157.811 201.68C157.499 201.433 157.15 201.266 156.785 201.187L130.513 195.491C130.149 195.412 129.775 195.424 129.414 195.524C129.052 195.625 128.711 195.813 128.408 196.078C128.105 196.343 127.848 196.679 127.649 197.067C127.451 197.456 127.317 197.889 127.253 198.343V198.343Z" fill="white"/>
<path d="M146.854 276.119C146.66 276.119 146.467 276.099 146.276 276.057L80.6712 261.834C79.7947 261.642 79.0152 261.027 78.5035 260.122C77.9918 259.217 77.7898 258.097 77.9417 257.007L85.8308 200.807C85.984 199.717 86.4791 198.747 87.2075 198.111C87.9359 197.475 88.8378 197.224 89.7148 197.414L123.495 204.737C123.79 204.802 124.093 204.793 124.385 204.712C124.677 204.631 124.954 204.479 125.199 204.265C125.444 204.051 125.653 203.779 125.813 203.465C125.974 203.151 126.083 202.8 126.134 202.433L126.726 198.225C126.802 197.685 126.962 197.169 127.198 196.707C127.435 196.244 127.742 195.844 128.102 195.529C128.463 195.213 128.87 194.99 129.3 194.87C129.73 194.751 130.175 194.737 130.61 194.832L156.882 200.528C157.759 200.718 158.539 201.333 159.051 202.238C159.563 203.144 159.765 204.264 159.612 205.354L150.16 272.665C150.023 273.631 149.617 274.507 149.012 275.139C148.408 275.771 147.644 276.118 146.854 276.119ZM89.1295 198.689C88.5936 198.691 88.0753 198.927 87.6655 199.356C87.2558 199.786 86.9808 200.381 86.8889 201.037L79.0019 257.237C78.8984 257.978 79.0354 258.739 79.3829 259.353C79.7304 259.968 80.2599 260.386 80.8553 260.516L146.462 274.739C147.057 274.868 147.67 274.698 148.165 274.266C148.659 273.834 148.996 273.175 149.1 272.435L158.549 205.125C158.653 204.385 158.516 203.624 158.168 203.009C157.821 202.394 157.291 201.976 156.695 201.846L130.423 196.15C130.128 196.086 129.826 196.094 129.534 196.175C129.242 196.257 128.965 196.408 128.72 196.622C128.475 196.836 128.266 197.108 128.106 197.422C127.945 197.737 127.836 198.087 127.785 198.454L127.193 202.662C127.117 203.202 126.956 203.718 126.72 204.181C126.484 204.643 126.177 205.044 125.816 205.359C125.455 205.674 125.048 205.898 124.618 206.017C124.188 206.137 123.743 206.15 123.309 206.056L89.5274 198.732C89.3966 198.703 89.264 198.689 89.1311 198.689H89.1295Z" fill="#292A2E"/>
<path d="M151.803 232.73C151.885 232.37 152.059 232.054 152.299 231.828C152.539 231.603 152.832 231.481 153.132 231.481C153.129 231.451 153.102 231.382 153.144 231.377L152.109 230.752C151.8 230.576 151.554 230.268 151.414 229.883C151.275 229.499 151.252 229.065 151.35 228.662C151.457 228.267 151.679 227.936 151.971 227.733C152.264 227.53 152.607 227.469 152.933 227.561C152.929 227.545 152.933 227.528 152.933 227.511L152.508 227.254C152.218 227.087 151.983 226.8 151.844 226.443C151.705 226.086 151.669 225.679 151.743 225.293C151.793 225.052 151.886 224.828 152.014 224.636C152.143 224.445 152.304 224.292 152.486 224.187C152.668 224.083 152.866 224.03 153.067 224.033C153.267 224.035 153.465 224.093 153.645 224.201L154.627 224.794C154.627 224.787 154.627 224.78 154.627 224.773C154.627 224.766 154.639 224.762 154.643 224.754C154.404 224.516 154.236 224.185 154.169 223.813C154.101 223.441 154.137 223.052 154.271 222.709C154.57 221.796 155.546 221.762 156.181 222.144L158.105 223.544C158.402 223.761 158.652 224.065 158.831 224.43C159.011 224.795 159.115 225.209 159.134 225.636C159.306 229.331 159.569 238.995 157.542 237.772L152.553 234.76C152.264 234.573 152.034 234.272 151.898 233.905C151.763 233.537 151.729 233.124 151.803 232.73V232.73Z" fill="#E98862"/>
<path d="M96.0322 248.397C96.011 247.986 95.8875 247.593 95.679 247.273C95.4705 246.953 95.1871 246.721 94.868 246.609C94.8822 246.577 94.8878 246.541 94.8842 246.505C94.8779 246.475 94.8654 246.447 94.8479 246.425C94.8304 246.403 94.8086 246.387 94.7846 246.379L96.1173 246.011C96.5117 245.914 96.8643 245.642 97.11 245.246C97.3557 244.85 97.4778 244.358 97.4538 243.859C97.4166 243.367 97.2342 242.911 96.9417 242.577C96.6493 242.243 96.2677 242.056 95.8707 242.052C95.8793 242.035 95.8755 242.013 95.8798 241.994L96.4274 241.842C96.7989 241.749 97.1328 241.498 97.3727 241.133C97.6125 240.769 97.7435 240.312 97.7435 239.841C97.7386 239.546 97.681 239.255 97.5749 238.991C97.4689 238.727 97.3169 238.495 97.13 238.312C96.9432 238.13 96.726 238.001 96.4943 237.935C96.2626 237.87 96.022 237.869 95.7899 237.932L94.5261 238.281C94.5261 238.272 94.5315 238.266 94.5299 238.257C94.5283 238.248 94.5191 238.24 94.5159 238.23C94.8447 238.037 95.1111 237.712 95.2714 237.306C95.4316 236.9 95.4762 236.439 95.3979 235.998C95.2547 234.842 94.1363 234.469 93.3194 234.695L85.945 236.562L87.6945 234.973C88.0405 234.672 88.2816 234.219 88.3689 233.705C88.4563 233.192 88.3835 232.656 88.1651 232.207C88.0461 231.98 87.8911 231.785 87.7096 231.635C87.5281 231.485 87.3239 231.383 87.1095 231.334C86.895 231.285 86.6748 231.291 86.4623 231.352C86.2498 231.412 86.0494 231.526 85.8734 231.686L76.3209 240.365C75.1998 241.383 74.4424 242.904 74.2098 244.605C73.9772 246.306 74.2877 248.052 75.0754 249.473C75.9883 251.121 77.2763 252.393 78.7746 253.125C80.2728 253.858 81.9129 254.018 83.4847 253.584L94.7162 250.486C95.093 250.374 95.4282 250.106 95.6671 249.727C95.906 249.347 96.0347 248.879 96.0322 248.397Z" fill="#E98862"/>
<g opacity="0.25">
<path d="M87.2298 240.118C87.2384 240.164 87.2614 240.205 87.2939 240.231C87.3264 240.257 87.3658 240.266 87.4037 240.257L94.4146 238.469C94.4512 238.457 94.4827 238.428 94.5026 238.389C94.5226 238.349 94.5295 238.301 94.5219 238.255C94.5143 238.209 94.4928 238.168 94.4619 238.141C94.4309 238.114 94.3928 238.103 94.3554 238.109L87.3445 239.896C87.3254 239.901 87.3072 239.91 87.2911 239.924C87.275 239.937 87.2611 239.954 87.2504 239.975C87.2397 239.995 87.2323 240.017 87.2287 240.041C87.225 240.065 87.2252 240.089 87.2292 240.113L87.2298 240.118Z" fill="#0C0C0C"/>
</g>
<g opacity="0.25">
<path d="M87.779 243.98C87.7876 244.027 87.8107 244.068 87.8434 244.094C87.876 244.12 87.9155 244.129 87.9535 244.12L95.7775 242.126C95.7965 242.121 95.8146 242.111 95.8307 242.098C95.8468 242.084 95.8606 242.067 95.8713 242.047C95.882 242.027 95.8894 242.004 95.8931 241.98C95.8968 241.957 95.8966 241.932 95.8927 241.909C95.8837 241.862 95.8605 241.821 95.828 241.794C95.7955 241.767 95.756 241.757 95.7177 241.766L87.8937 243.759C87.8746 243.764 87.8565 243.773 87.8404 243.787C87.8243 243.8 87.8105 243.818 87.7998 243.838C87.7891 243.858 87.7817 243.881 87.778 243.905C87.7744 243.928 87.7745 243.953 87.7784 243.976L87.779 243.98Z" fill="#0C0C0C"/>
</g>
<g opacity="0.25">
<path d="M88.3536 248.171C88.3621 248.218 88.3851 248.258 88.4176 248.284C88.4502 248.311 88.4896 248.32 88.5275 248.31L94.7689 246.719C94.788 246.714 94.8061 246.705 94.8222 246.692C94.8383 246.678 94.8521 246.661 94.8628 246.641C94.8735 246.62 94.8809 246.598 94.8846 246.574C94.8882 246.55 94.8881 246.526 94.8842 246.502C94.8761 246.455 94.8532 246.413 94.8205 246.386C94.7877 246.359 94.7477 246.349 94.7092 246.359L88.4683 247.949C88.4492 247.954 88.4311 247.964 88.415 247.977C88.3989 247.991 88.3851 248.008 88.3744 248.028C88.3637 248.048 88.3563 248.071 88.3526 248.095C88.349 248.119 88.3491 248.143 88.353 248.167L88.3536 248.171Z" fill="#0C0C0C"/>
</g>
<path d="M82.7901 259.104L21.8523 272.79C19.9507 273.047 18.0271 272.753 16.2323 271.931C14.4376 271.109 12.8205 269.781 11.5079 268.052C10.1954 266.323 9.22312 264.24 8.66737 261.965C8.11162 259.691 7.98753 257.287 8.30483 254.943L16.8358 191.927C17.1055 189.935 17.6884 188.028 18.5511 186.315C19.4137 184.603 20.5394 183.119 21.8637 181.947C23.188 180.775 24.6851 179.939 26.2694 179.486C27.8538 179.033 29.4944 178.973 31.0976 179.308C32.7007 179.643 34.2351 180.367 35.613 181.439C36.991 182.512 38.1855 183.91 39.1284 185.556C40.0713 187.202 40.7441 189.062 41.1085 191.031C41.4728 193 41.5215 195.039 41.2518 197.031L35.4363 240.411L80.1128 233.439L82.7901 259.104Z" fill="#AD42AF"/>
<path d="M21.8517 273.069C21.7956 273.069 21.7416 273.042 21.7004 272.995C21.6592 272.948 21.6336 272.883 21.6287 272.813C21.6238 272.744 21.6399 272.675 21.6738 272.619C21.7078 272.564 21.7572 272.526 21.8124 272.513L82.5392 258.876L79.9168 233.751L35.4627 240.689C35.4278 240.695 35.3924 240.69 35.3593 240.676C35.3262 240.661 35.2963 240.637 35.2719 240.606C35.2476 240.574 35.2295 240.536 35.2192 240.494C35.2088 240.453 35.2065 240.409 35.2123 240.365L38.9105 212.64C38.915 212.604 38.9253 212.569 38.9409 212.537C38.9564 212.506 38.9768 212.479 39.001 212.457C39.0251 212.436 39.0525 212.421 39.0814 212.413C39.1104 212.404 39.1403 212.404 39.1695 212.41C39.2285 212.422 39.2811 212.463 39.316 212.523C39.3508 212.584 39.3649 212.659 39.3553 212.732L35.7088 240.086L80.0854 233.16C80.1445 233.152 80.2039 233.173 80.2509 233.218C80.2979 233.263 80.3288 233.329 80.3368 233.403L83.0163 259.068C83.0237 259.139 83.0088 259.211 82.9746 259.269C82.9404 259.327 82.8896 259.367 82.8327 259.379L21.8926 273.065C21.8791 273.068 21.8654 273.069 21.8517 273.069Z" fill="#0C0C0C"/>
<path d="M35.4005 240.135L31.4808 240.915L31.5522 241.469L35.4719 240.689L35.4005 240.135Z" fill="#0C0C0C"/>
<path d="M418.79 423.03H389.239V421.691H418.79C426.063 421.682 433.037 418.087 438.18 411.696C443.323 405.304 446.215 396.638 446.223 387.6V151.824H447.3V387.6C447.291 396.993 444.285 405.999 438.94 412.641C433.595 419.283 426.349 423.019 418.79 423.03V423.03Z" fill="#292A2E"/>
<path d="M446.762 197.802C448.672 197.802 450.221 195.878 450.221 193.503C450.221 191.129 448.672 189.204 446.762 189.204C444.851 189.204 443.302 191.129 443.302 193.503C443.302 195.878 444.851 197.802 446.762 197.802Z" fill="white"/>
<path d="M446.762 198.472C445.971 198.472 445.198 198.18 444.54 197.634C443.882 197.088 443.37 196.312 443.067 195.404C442.765 194.496 442.685 193.497 442.84 192.533C442.994 191.569 443.375 190.683 443.934 189.988C444.494 189.293 445.206 188.82 445.982 188.629C446.758 188.437 447.562 188.535 448.292 188.912C449.023 189.288 449.647 189.925 450.087 190.742C450.526 191.559 450.76 192.52 450.76 193.503C450.759 194.821 450.337 196.083 449.588 197.015C448.838 197.946 447.822 198.47 446.762 198.472V198.472ZM446.762 189.872C446.184 189.872 445.619 190.085 445.138 190.484C444.658 190.883 444.283 191.45 444.062 192.114C443.841 192.777 443.783 193.507 443.896 194.212C444.009 194.916 444.287 195.563 444.696 196.071C445.104 196.578 445.625 196.924 446.192 197.064C446.758 197.204 447.346 197.133 447.88 196.858C448.414 196.583 448.87 196.117 449.191 195.52C449.512 194.923 449.683 194.221 449.683 193.503C449.683 192.54 449.374 191.618 448.827 190.937C448.279 190.256 447.536 189.873 446.762 189.872V189.872Z" fill="#292A2E"/>
<path d="M446.762 258.315C448.672 258.315 450.221 256.39 450.221 254.015C450.221 251.641 448.672 249.716 446.762 249.716C444.851 249.716 443.302 251.641 443.302 254.015C443.302 256.39 444.851 258.315 446.762 258.315Z" fill="#292A2E"/>
<path d="M446.762 258.984C445.971 258.984 445.198 258.693 444.54 258.147C443.882 257.601 443.37 256.825 443.067 255.917C442.765 255.009 442.685 254.01 442.84 253.046C442.994 252.082 443.375 251.196 443.934 250.501C444.493 249.806 445.206 249.333 445.982 249.141C446.757 248.95 447.561 249.048 448.292 249.424C449.023 249.8 449.647 250.437 450.086 251.254C450.526 252.072 450.76 253.032 450.76 254.015C450.759 255.333 450.338 256.596 449.588 257.527C448.838 258.459 447.822 258.983 446.762 258.984V258.984ZM446.762 250.385C446.184 250.385 445.619 250.598 445.138 250.997C444.658 251.396 444.283 251.963 444.062 252.627C443.841 253.29 443.783 254.02 443.896 254.724C444.009 255.429 444.287 256.076 444.696 256.584C445.105 257.091 445.625 257.437 446.192 257.577C446.759 257.717 447.346 257.645 447.88 257.37C448.414 257.095 448.87 256.63 449.191 256.033C449.512 255.435 449.683 254.733 449.683 254.015C449.682 253.053 449.374 252.13 448.827 251.449C448.279 250.769 447.536 250.386 446.762 250.385V250.385Z" fill="white"/>
<path d="M446.762 318.827C448.672 318.827 450.221 316.902 450.221 314.527C450.221 312.153 448.672 310.228 446.762 310.228C444.851 310.228 443.302 312.153 443.302 314.527C443.302 316.902 444.851 318.827 446.762 318.827Z" fill="white"/>
<path d="M446.762 319.497C445.971 319.497 445.198 319.205 444.54 318.659C443.882 318.113 443.37 317.337 443.067 316.429C442.765 315.521 442.685 314.522 442.84 313.558C442.994 312.594 443.375 311.709 443.934 311.014C444.493 310.319 445.206 309.845 445.982 309.654C446.757 309.462 447.561 309.56 448.292 309.936C449.023 310.312 449.647 310.949 450.086 311.767C450.526 312.584 450.76 313.545 450.76 314.527C450.759 315.845 450.338 317.108 449.588 318.04C448.838 318.971 447.822 319.495 446.762 319.497V319.497ZM446.762 310.897C446.184 310.897 445.619 311.11 445.138 311.509C444.658 311.908 444.283 312.475 444.062 313.139C443.841 313.802 443.783 314.532 443.896 315.237C444.009 315.941 444.287 316.588 444.696 317.096C445.105 317.604 445.625 317.949 446.192 318.089C446.759 318.229 447.346 318.157 447.88 317.882C448.414 317.607 448.87 317.142 449.191 316.545C449.512 315.948 449.683 315.246 449.683 314.527C449.682 313.565 449.374 312.643 448.826 311.962C448.279 311.282 447.536 310.899 446.762 310.898V310.897Z" fill="#292A2E"/>
<path d="M446.762 379.339C448.672 379.339 450.221 377.414 450.221 375.04C450.221 372.665 448.672 370.74 446.762 370.74C444.851 370.74 443.302 372.665 443.302 375.04C443.302 377.414 444.851 379.339 446.762 379.339Z" fill="white"/>
<path d="M446.762 380.008C445.971 380.008 445.198 379.717 444.54 379.171C443.882 378.625 443.37 377.849 443.067 376.941C442.765 376.033 442.685 375.034 442.84 374.07C442.994 373.106 443.375 372.22 443.934 371.525C444.493 370.83 445.206 370.357 445.982 370.165C446.757 369.974 447.561 370.072 448.292 370.448C449.023 370.824 449.647 371.461 450.086 372.278C450.526 373.096 450.76 374.056 450.76 375.039C450.759 376.357 450.338 377.62 449.588 378.551C448.838 379.483 447.822 380.007 446.762 380.008V380.008ZM446.762 371.409C446.184 371.409 445.619 371.622 445.138 372.021C444.658 372.42 444.283 372.987 444.062 373.65C443.841 374.314 443.783 375.044 443.896 375.748C444.009 376.453 444.287 377.1 444.696 377.607C445.105 378.115 445.625 378.461 446.192 378.601C446.759 378.741 447.346 378.669 447.88 378.394C448.414 378.119 448.87 377.654 449.191 377.057C449.512 376.459 449.683 375.757 449.683 375.039C449.682 374.077 449.374 373.154 448.827 372.473C448.279 371.793 447.536 371.41 446.762 371.409V371.409Z" fill="#292A2E"/>
<path d="M420.325 426.817C422.236 426.817 423.785 424.892 423.785 422.518C423.785 420.143 422.236 418.218 420.325 418.218C418.415 418.218 416.866 420.143 416.866 422.518C416.866 424.892 418.415 426.817 420.325 426.817Z" fill="#292A2E"/>
<path d="M420.326 427.487C419.535 427.486 418.762 427.195 418.105 426.649C417.447 426.103 416.935 425.327 416.633 424.419C416.33 423.511 416.251 422.512 416.405 421.549C416.559 420.585 416.94 419.7 417.499 419.005C418.058 418.31 418.77 417.837 419.546 417.645C420.321 417.453 421.125 417.551 421.856 417.927C422.586 418.303 423.211 418.94 423.65 419.757C424.09 420.574 424.324 421.534 424.325 422.517C424.324 423.834 423.902 425.098 423.152 426.029C422.403 426.961 421.386 427.485 420.326 427.487ZM420.326 418.888C419.748 418.888 419.183 419.101 418.703 419.5C418.223 419.899 417.848 420.466 417.627 421.129C417.406 421.793 417.349 422.523 417.461 423.227C417.574 423.931 417.853 424.578 418.261 425.086C418.67 425.593 419.191 425.939 419.757 426.079C420.324 426.219 420.911 426.146 421.445 425.871C421.979 425.596 422.435 425.131 422.756 424.534C423.077 423.937 423.248 423.235 423.248 422.517C423.247 421.554 422.938 420.632 422.391 419.951C421.843 419.271 421.1 418.888 420.326 418.888V418.888Z" fill="white"/>
<path d="M-18.4615 535.789H481.316C481.459 535.789 481.596 535.718 481.697 535.593C481.798 535.467 481.854 535.297 481.854 535.119C481.854 534.942 481.798 534.772 481.697 534.646C481.596 534.521 481.459 534.45 481.316 534.45H-18.4615C-18.6043 534.45 -18.7413 534.521 -18.8423 534.646C-18.9433 534.772 -19 534.942 -19 535.119C-19 535.297 -18.9433 535.467 -18.8423 535.593C-18.7413 535.718 -18.6043 535.789 -18.4615 535.789V535.789Z" fill="#262626"/>
</g>
<defs>
<clipPath id="clip0_5_23">
<rect width="536" height="536" fill="white" transform="translate(-19)"/>
</clipPath>
</defs>
</svg>
