<svg width="536" height="464" viewBox="0 0 536 464" fill="none" xmlns="http://www.w3.org/2000/svg">
<g clip-path="url(#clip0_5_3255)">
<path d="M499.023 464C520.087 464 536.894 438.408 535.963 407.753C534.747 367.672 520.677 311.079 465.218 254.521C397.588 185.551 428.09 -13.0238 284.394 0.675526C140.698 14.3749 137.154 128.575 66.2883 228.392C18.3876 295.862 0.00399123 354.982 0 410.222C0 439.938 16.5762 464.004 36.9761 464.004L499.023 464Z" fill="#F3F5FD"/>
<path d="M383.85 140.698C408.601 140.698 428.666 112.436 428.666 77.5725C428.666 42.7094 408.601 14.4473 383.85 14.4473C359.098 14.4473 339.034 42.7094 339.034 77.5725C339.034 112.436 359.098 140.698 383.85 140.698Z" fill="#D7E8F4"/>
<path d="M400.625 48.0335C400.625 48.0335 401.175 40.5378 405.851 40.5378C411.405 40.5378 407.613 62.0327 405.186 75.1765C404.927 76.5815 404.881 78.0478 405.052 79.4794C405.222 80.9111 405.605 82.2761 406.175 83.4853C406.746 84.6945 407.49 85.7207 408.361 86.497C409.232 87.2732 410.21 87.7821 411.23 87.9904V87.9904C412.213 88.1921 413.215 88.11 414.176 87.749C415.136 87.3881 416.034 86.7559 416.816 85.8908C417.597 85.0257 418.245 83.9458 418.721 82.7168C419.197 81.4878 419.491 80.1354 419.584 78.7416C420.708 61.8875 420.449 30.7887 407.859 31.3874C399.677 31.7772 399.677 43.2606 399.677 43.2606L400.625 48.0335Z" fill="#0F1011"/>
<path d="M400.625 73.8028C400.625 73.8028 397.242 71.273 397.997 58.2988L391.007 56.4727C391.007 56.4727 391.793 68.1079 388.256 71.8014L400.625 73.8028Z" fill="#E98862"/>
<g opacity="0.15">
<path d="M389.688 69.369L395.495 63.1119L390.934 63.0454C390.802 65.2441 390.379 67.3887 389.688 69.369V69.369Z" fill="black"/>
</g>
<path d="M401.963 53.2666C401.48 57.2018 399.954 60.9319 397.488 62.2043C394.801 63.7068 391.893 64.2601 389.018 63.8159C381.368 62.9323 382.88 38.4241 386.513 33.6625C390.145 28.9008 400.809 31.9169 402.106 39.8792C402.777 43.9972 402.424 49.5196 401.963 53.2666Z" fill="#E98862"/>
<path d="M391.017 50.2336C391.367 50.2336 391.651 49.8338 391.651 49.3407C391.651 48.8475 391.367 48.4478 391.017 48.4478C390.667 48.4478 390.383 48.8475 390.383 49.3407C390.383 49.8338 390.667 50.2336 391.017 50.2336Z" fill="#0F1011"/>
<path d="M386.015 49.6565C386.365 49.6565 386.649 49.2567 386.649 48.7635C386.649 48.2704 386.365 47.8706 386.015 47.8706C385.665 47.8706 385.381 48.2704 385.381 48.7635C385.381 49.2567 385.665 49.6565 386.015 49.6565Z" fill="#0F1011"/>
<path d="M384.917 46.8606C384.837 46.8613 384.761 46.8176 384.704 46.7391C384.648 46.6605 384.616 46.5536 384.615 46.4418C384.615 46.3299 384.646 46.2224 384.702 46.1428C384.757 46.0632 384.833 46.0181 384.913 46.0173L386.592 45.9873C386.671 45.9859 386.748 46.0288 386.805 46.1069C386.861 46.1849 386.894 46.2915 386.895 46.4034C386.896 46.5152 386.866 46.623 386.81 46.7031C386.755 46.7833 386.679 46.8291 386.6 46.8306L384.92 46.8606H384.917Z" fill="#0F1011"/>
<path d="M392.385 47.7225C392.361 47.7225 392.338 47.7187 392.315 47.7113L390.659 47.1491C390.584 47.1209 390.52 47.0525 390.48 46.9584C390.44 46.8643 390.428 46.7521 390.446 46.6455C390.464 46.539 390.511 46.4468 390.577 46.3884C390.643 46.33 390.722 46.3101 390.798 46.333L392.454 46.8952C392.524 46.9195 392.586 46.9792 392.628 47.0629C392.669 47.1466 392.687 47.2487 392.679 47.3501C392.671 47.4514 392.637 47.5452 392.583 47.6137C392.53 47.6823 392.46 47.721 392.388 47.7225H392.385Z" fill="#0F1011"/>
<path d="M390.723 56.3737C389.388 56.5628 388.039 56.4072 386.743 55.9146C386.823 56.5462 387.05 57.1227 387.387 57.5542C387.724 57.9857 388.153 58.248 388.608 58.3004C389.062 58.3528 389.515 58.1922 389.898 57.8438C390.281 57.4953 390.571 56.9785 390.723 56.3737V56.3737Z" fill="#F8FCFF"/>
<path d="M396.815 43.0658C396.149 61.0292 397.898 62.8835 397.898 62.8835C397.898 62.8835 404.269 57.4856 405.101 46.6974C405.451 42.9384 404.825 39.128 403.34 35.9664C401.855 32.8048 399.609 30.5045 397.016 29.4882C383.433 25.21 381.933 42.6319 381.933 42.6319C388.732 45.0933 398.285 43.4265 398.285 43.4265" fill="#0F1011"/>
<path d="M394.315 51.5265C394.286 52.022 394.327 52.5206 394.435 52.9939C394.543 53.4672 394.716 53.906 394.944 54.2851C395.172 54.6641 395.452 54.9761 395.766 55.2033C396.08 55.4304 396.422 55.5682 396.774 55.6088C397.126 55.6494 397.48 55.592 397.816 55.4399C398.152 55.2878 398.463 55.044 398.732 54.7223C399.002 54.4007 399.223 54.0075 399.384 53.5652C399.546 53.123 399.643 52.6404 399.672 52.1449C399.707 51.6475 399.671 51.1454 399.565 50.6683C399.459 50.1913 399.286 49.7491 399.057 49.3681C398.827 48.9872 398.545 48.6753 398.228 48.451C397.911 48.2266 397.565 48.0945 397.211 48.0625C395.297 47.9726 394.436 49.4427 394.315 51.5265Z" fill="#E98862"/>
<g opacity="0.15">
<path d="M388.202 54.2942C388.255 54.2954 388.306 54.2696 388.347 54.2217C388.387 54.1737 388.414 54.1068 388.422 54.0333C388.43 53.9598 388.419 53.8846 388.391 53.8217C388.363 53.7587 388.319 53.7122 388.269 53.6908L386.979 53.1333L387.881 50.3037C387.902 50.2297 387.902 50.1471 387.881 50.0731C387.86 49.9991 387.819 49.9395 387.767 49.9069C387.716 49.8742 387.657 49.8711 387.604 49.8981C387.551 49.9251 387.507 49.9801 387.482 50.0516L386.479 53.1998C386.466 53.2395 386.459 53.2827 386.459 53.3263C386.459 53.37 386.466 53.4131 386.479 53.4528C386.491 53.4923 386.51 53.5276 386.533 53.5565C386.555 53.5854 386.582 53.6072 386.612 53.6205L388.138 54.2764C388.158 54.2868 388.18 54.2928 388.202 54.2942V54.2942Z" fill="black"/>
</g>
<path d="M404.824 42.2142C404.558 42.214 404.301 42.0771 404.101 41.8293C403.902 41.5814 403.773 41.2396 403.74 40.8678C403.491 38.778 402.767 36.8582 401.678 35.3969C401.469 35.1249 401.343 34.749 401.328 34.3488C401.313 33.9486 401.409 33.5557 401.595 33.2536C401.782 32.9514 402.046 32.7638 402.329 32.7304C402.613 32.6971 402.894 32.8207 403.114 33.0751C404.609 35.0307 405.593 37.6379 405.908 40.4771C405.944 40.8825 405.865 41.2917 405.688 41.615C405.51 41.9382 405.249 42.149 404.961 42.2011C404.916 42.2095 404.87 42.2139 404.824 42.2142Z" fill="#262626"/>
<path d="M363.653 92.4943L368.957 91.3025C369.166 91.2554 369.365 91.1467 369.542 90.9837C369.718 90.8207 369.869 90.6069 369.983 90.3564C370.097 90.106 370.172 89.8244 370.203 89.5302C370.235 89.236 370.222 88.9357 370.165 88.649L366.828 71.7837C366.729 71.2838 366.503 70.8527 366.193 70.5725C365.884 70.2923 365.511 70.1828 365.147 70.2648L359.843 71.4567C359.635 71.5036 359.435 71.612 359.259 71.7749C359.082 71.9378 358.931 72.1515 358.817 72.4019C358.703 72.6523 358.628 72.9339 358.597 73.2281C358.565 73.5223 358.578 73.8226 358.635 74.1092L361.972 90.9793C362.072 91.4782 362.298 91.9082 362.608 92.1876C362.918 92.4669 363.289 92.5761 363.653 92.4943V92.4943Z" fill="#262626"/>
<path d="M372.195 88.0751L369.068 94.0529C369.068 94.0529 360.661 91.6796 359.872 82.5564C359.781 81.5051 359.86 78.5996 360.784 78.9893C363.189 80.005 366.185 85.2061 368.285 85.8976C367.806 84.6889 367.22 82.9827 367.598 82.6707C368.59 81.848 371.254 86.8008 372.195 88.0751Z" fill="#E98862"/>
<path d="M347.981 83.9991C348.047 84.1331 347.701 84.4207 347.781 84.5444L354.357 78.2021C353.404 75.8831 352.314 73.5322 351.672 73.8761C351.417 74.0138 351.339 74.9733 351.332 76.0958C348.979 71.4184 346.635 66.9135 344.301 70.0055C342.66 72.1764 344.962 78.292 347.981 83.9991Z" fill="#E98862"/>
<path d="M409.849 114.646C409.844 118.992 410.346 123.31 411.333 127.427C406.227 133.007 400.326 136.968 394.033 139.039C387.74 141.11 381.204 141.242 374.871 139.426C374.539 134.472 377.285 129.196 377.14 112.194C377.133 111.363 377.112 110.513 377.077 109.653L375.884 108.177L371.708 119.209C371.32 120.236 370.75 121.104 370.054 121.728C369.357 122.352 368.558 122.711 367.733 122.77C367.649 122.77 367.573 122.78 367.497 122.78C366.711 122.78 365.938 122.506 365.246 121.983C364.553 121.46 363.964 120.703 363.529 119.782L346.387 83.4816L354.33 76.045L367.046 102.965L368.523 99.0606L365.714 95.5938L372.013 85.4999L373.13 86.8781L377.022 76.5987L377.119 76.6765C378.472 73.3446 380.927 71.2046 385.138 70.9404C385.416 70.931 385.853 70.9113 386.422 70.9019C386.54 74.2928 401.441 74.2825 401.753 70.8232C405.964 70.8232 409.419 72.641 411.416 75.465C418.312 85.1701 409.849 101.709 409.849 114.646Z" fill="#367CFF"/>
<path d="M386.425 70.9004C386.538 74.2894 387.847 79.2759 391.885 79.6517C397.267 80.1511 401.442 74.2772 401.756 70.8198H401.743C396.445 70.8198 389.514 70.8348 386.425 70.9004Z" fill="#E98862"/>
<path d="M386.457 447.235C411.209 447.235 431.273 418.973 431.273 384.11C431.273 349.246 411.209 320.984 386.457 320.984C361.706 320.984 341.641 349.246 341.641 384.11C341.641 418.973 361.706 447.235 386.457 447.235Z" fill="#D7E8F4"/>
<path d="M401.226 379.673C401.226 379.673 397.842 377.143 398.597 364.169L391.606 362.344C391.606 362.344 392.392 373.978 388.855 377.672L401.226 379.673Z" fill="#E98862"/>
<g opacity="0.15">
<path d="M390.288 375.24L396.096 368.982L391.535 368.916C391.403 371.115 390.98 373.26 390.288 375.24Z" fill="black"/>
</g>
<path d="M402.564 359.139C402.08 363.074 400.554 366.805 398.089 368.076C395.401 369.579 392.493 370.132 389.619 369.688C381.969 368.804 383.481 344.296 387.113 339.535C390.746 334.773 401.409 337.789 402.706 345.751C403.38 349.868 403.024 355.391 402.564 359.139Z" fill="#E98862"/>
<path d="M391.617 356.105C391.967 356.105 392.251 355.705 392.251 355.212C392.251 354.719 391.967 354.319 391.617 354.319C391.267 354.319 390.983 354.719 390.983 355.212C390.983 355.705 391.267 356.105 391.617 356.105Z" fill="#0F1011"/>
<path d="M386.616 355.527C386.966 355.527 387.25 355.127 387.25 354.634C387.25 354.141 386.966 353.741 386.616 353.741C386.266 353.741 385.982 354.141 385.982 354.634C385.982 355.127 386.266 355.527 386.616 355.527Z" fill="#0F1011"/>
<path d="M385.517 352.731H385.521L387.2 352.701C387.279 352.699 387.355 352.654 387.41 352.574C387.465 352.495 387.495 352.388 387.494 352.276C387.49 352.167 387.456 352.063 387.401 351.987C387.345 351.91 387.27 351.866 387.192 351.862L385.513 351.892C385.433 351.893 385.357 351.938 385.302 352.018C385.246 352.097 385.215 352.205 385.215 352.317C385.216 352.429 385.248 352.536 385.304 352.614C385.361 352.693 385.437 352.736 385.517 352.736V352.731Z" fill="#0F1011"/>
<path d="M392.986 353.594C393.059 353.593 393.129 353.555 393.183 353.486C393.237 353.417 393.272 353.323 393.28 353.221C393.288 353.119 393.269 353.016 393.227 352.932C393.185 352.848 393.123 352.789 393.052 352.765L391.396 352.203C391.32 352.178 391.24 352.197 391.173 352.255C391.106 352.313 391.058 352.406 391.04 352.514C391.021 352.621 391.034 352.735 391.074 352.829C391.115 352.924 391.181 352.992 391.257 353.019L392.913 353.581C392.937 353.59 392.961 353.594 392.986 353.594V353.594Z" fill="#0F1011"/>
<path d="M398.188 367.604C398.333 368.26 398.434 368.541 398.853 368.194C400.496 366.819 403.757 363.825 405.017 352.613C406.148 342.566 401.746 338.421 398.237 336.943C395.212 335.669 388.915 336.568 385.516 339.172C382.995 341.102 384.84 346.281 384.84 346.281C386.103 346.362 385.825 341.645 388.802 341.645C391.104 341.645 393.131 346.442 395.285 346.569C397.258 346.686 397.663 348.379 397.593 349.463C397.17 356.047 397.674 365.29 398.188 367.604Z" fill="#0F1011"/>
<path d="M394.915 357.397C394.887 357.892 394.927 358.391 395.035 358.864C395.143 359.338 395.316 359.776 395.545 360.156C395.773 360.535 396.052 360.847 396.366 361.074C396.68 361.301 397.023 361.439 397.375 361.479C397.726 361.52 398.08 361.462 398.416 361.31C398.753 361.158 399.064 360.914 399.333 360.593C399.602 360.271 399.824 359.878 399.985 359.436C400.146 358.993 400.244 358.511 400.273 358.015C400.308 357.518 400.271 357.016 400.166 356.539C400.06 356.062 399.887 355.62 399.657 355.239C399.428 354.858 399.146 354.546 398.829 354.321C398.512 354.097 398.166 353.965 397.812 353.933C395.898 353.845 395.036 355.313 394.915 357.397Z" fill="#E98862"/>
<g opacity="0.15">
<path d="M388.803 360.169C388.78 360.17 388.758 360.165 388.736 360.156L387.21 359.5C387.181 359.487 387.154 359.465 387.131 359.436C387.108 359.407 387.09 359.371 387.077 359.332C387.065 359.292 387.058 359.249 387.058 359.206C387.058 359.162 387.065 359.119 387.077 359.079L388.081 355.931C388.105 355.858 388.149 355.801 388.203 355.772C388.257 355.744 388.317 355.747 388.369 355.78C388.422 355.813 388.463 355.874 388.484 355.95C388.504 356.026 388.503 356.11 388.48 356.184L387.578 359.014L388.867 359.576C388.917 359.598 388.96 359.645 388.988 359.707C389.016 359.77 389.026 359.845 389.018 359.918C389.01 359.991 388.984 360.057 388.944 360.105C388.904 360.153 388.853 360.179 388.801 360.179L388.803 360.169Z" fill="black"/>
</g>
<path d="M391.324 362.245C389.988 362.433 388.639 362.278 387.343 361.785C387.424 362.416 387.65 362.993 387.988 363.425C388.325 363.856 388.754 364.119 389.208 364.171C389.662 364.224 390.116 364.063 390.499 363.715C390.881 363.366 391.171 362.85 391.324 362.245V362.245Z" fill="white"/>
<path d="M385.307 339.505C383.039 341.645 383.485 345.745 383.91 349.302H386.718L387.896 343.545L389.333 349.302L400.281 349.835L398.961 342.188" fill="#0F1011"/>
<path d="M405.896 370.976C409.281 370.976 412.024 367.111 412.024 362.344C412.024 357.576 409.281 353.711 405.896 353.711C402.511 353.711 399.767 357.576 399.767 362.344C399.767 367.111 402.511 370.976 405.896 370.976Z" fill="#0F1011"/>
<path d="M366.628 395.748C366.628 395.748 363.352 388.418 363.486 386.433C363.621 384.449 367.715 382.44 367.715 382.44C367.715 382.44 367.122 380.684 366.595 378.758C365.986 376.534 365.464 374.083 366.034 373.839C366.584 373.603 367.42 375.619 368.186 377.966C369.17 380.978 370.039 384.525 370.039 384.525C370.039 384.525 370.129 381.018 371.05 381.241C371.428 381.334 371.588 381.967 371.589 384.48C371.589 387.344 371.907 391.81 371.907 391.81L366.628 395.748Z" fill="#E98862"/>
<path d="M377.029 428.61C376.08 428.609 375.153 428.21 374.366 427.463C373.579 426.717 372.968 425.657 372.611 424.419L364.035 394.672L372.875 389.617L375.469 398.623L377.508 384.276L386.863 386.913L381.706 423.209C381.505 424.626 380.985 425.914 380.223 426.881C379.461 427.849 378.498 428.444 377.477 428.58C377.328 428.6 377.178 428.61 377.029 428.61Z" fill="#367CFF"/>
<path d="M361.547 404.493L366.852 403.301C367.06 403.254 367.26 403.145 367.436 402.982C367.613 402.819 367.763 402.605 367.877 402.354C367.991 402.103 368.066 401.822 368.097 401.527C368.128 401.233 368.115 400.932 368.058 400.646L364.72 383.781C364.621 383.281 364.395 382.85 364.085 382.57C363.775 382.29 363.403 382.18 363.039 382.262L357.736 383.454C357.527 383.501 357.328 383.609 357.151 383.772C356.975 383.935 356.824 384.149 356.71 384.4C356.596 384.65 356.521 384.932 356.49 385.226C356.458 385.52 356.471 385.82 356.528 386.107L359.865 402.972C359.963 403.473 360.189 403.905 360.5 404.186C360.81 404.466 361.183 404.576 361.547 404.493V404.493Z" fill="#262626"/>
<path d="M370.089 400.073L366.963 406.051C366.963 406.051 358.555 403.676 357.766 394.553C357.676 393.503 357.754 390.596 358.678 390.987C361.084 392.003 364.079 397.204 366.179 397.895C365.7 396.687 365.115 394.98 365.493 394.668C366.483 393.848 369.149 398.8 370.089 400.073Z" fill="#E98862"/>
<path d="M410.81 420.485C410.819 425.521 411.482 430.513 412.766 435.214C405.123 443.047 395.91 447.257 386.457 447.235C382.879 447.237 379.312 446.64 375.834 445.455C375.422 440.442 378.242 435.251 378.096 418.03C378.096 417.664 378.089 417.289 378.082 416.924L364.832 408.688L368.683 396.395L377.005 401.567C376.014 388.881 375.98 377.393 386.098 376.775C386.371 376.766 386.817 376.747 387.382 376.738C387.495 380.129 402.402 380.111 402.715 376.653C406.926 376.663 410.378 378.48 412.374 381.301C419.265 391.008 410.81 407.545 410.81 420.485Z" fill="#367CFF"/>
<path d="M387.382 376.737C387.496 380.126 388.804 385.112 392.843 385.488C398.225 385.987 402.399 380.114 402.714 376.656H402.701C397.402 376.66 390.471 376.668 387.382 376.737Z" fill="#E98862"/>
<path d="M76.8977 244.103C76.9142 263.491 82.3903 282.079 92.1244 295.787C101.859 309.496 115.056 317.206 128.821 317.226H199.925V395.289H128.82C69.6283 395.289 21.4755 327.464 21.4755 244.103C21.4755 160.742 69.6283 92.9028 128.82 92.9028H199.924V170.966H128.82C115.054 170.989 101.857 178.702 92.1232 192.413C82.3894 206.124 76.9138 224.713 76.8977 244.103Z" fill="#FD5D76"/>
<path d="M260.37 92.9028H199.924V170.966H260.37V92.9028Z" fill="#D7E8F4"/>
<path d="M260.37 317.226H199.924V395.289H260.37V317.226Z" fill="#D7E8F4"/>
<path d="M278.368 110.305L291.623 90.2559V98.3625L305.016 84.0645L290.17 108.917L288.435 102.134L278.368 110.305Z" fill="#C1D8ED"/>
<path d="M281.06 152.345L300.236 147.764L296.739 154.203L313.544 154.309L291.032 161.342L292.58 154.47L281.06 152.345Z" fill="#C1D8ED"/>
<path d="M278.008 329.422L295.216 316.655L293.317 324.307L309.309 317.033L289.474 333.595L289.425 326.386L278.008 329.422Z" fill="#C1D8ED"/>
<path d="M270.702 370.358L289.877 374.945L285.068 379.399L300.907 387.308L278.009 383.487L281.079 377.718L270.702 370.358Z" fill="#C1D8ED"/>
<path d="M475.593 284.893C500.344 284.893 520.409 256.631 520.409 221.768C520.409 186.905 500.344 158.643 475.593 158.643C450.841 158.643 430.777 186.905 430.777 221.768C430.777 256.631 450.841 284.893 475.593 284.893Z" fill="#D7E8F4"/>
<path d="M497.235 219.619C497.235 219.619 493.851 217.089 494.607 204.115L487.616 202.291C487.616 202.291 488.402 213.926 484.866 217.62L497.235 219.619Z" fill="#E98862"/>
<g opacity="0.15">
<path d="M486.298 215.185L492.105 208.928L487.544 208.862C487.412 211.061 486.989 213.205 486.298 215.185V215.185Z" fill="black"/>
</g>
<path d="M498.571 199.082C498.087 203.018 496.562 206.749 494.096 208.02C491.169 209.53 489.001 209.632 485.626 209.632C481.021 209.632 481.173 202.867 481.044 196.046C480.914 189.201 481.3 181.86 483.121 179.475C486.754 174.714 497.417 177.729 498.714 185.691C499.386 189.814 499.037 195.335 498.571 199.082Z" fill="#E98862"/>
<path d="M477.854 176.644C477.854 173.388 480.729 168.054 488.403 175.409L488.411 175.417C490.405 175.338 492.397 175.644 494.332 176.328C497.841 177.807 502.241 181.95 501.112 191.998C499.851 203.211 496.589 206.204 494.948 207.58C494.528 207.929 494.427 207.645 494.282 206.99C493.827 204.569 493.501 202.103 493.307 199.613C493.02 197.19 492.89 194.735 492.919 192.278C492.919 191.191 492.914 187.219 489.08 187.179C486.924 187.155 487.73 187.273 485.428 187.273C485.1 187.273 484.81 187.252 484.544 187.219C476.593 187.223 477.854 179.897 477.854 176.644Z" fill="#0F1011"/>
<path d="M487.626 196.05C487.976 196.05 488.26 195.65 488.26 195.157C488.26 194.663 487.976 194.264 487.626 194.264C487.276 194.264 486.992 194.663 486.992 195.157C486.992 195.65 487.276 196.05 487.626 196.05Z" fill="#0F1011"/>
<path d="M482.625 195.472C482.975 195.472 483.259 195.073 483.259 194.579C483.259 194.086 482.975 193.687 482.625 193.687C482.275 193.687 481.991 194.086 481.991 194.579C481.991 195.073 482.275 195.472 482.625 195.472Z" fill="#0F1011"/>
<path d="M481.526 192.676L483.206 192.646C483.285 192.646 483.362 192.602 483.418 192.523C483.474 192.444 483.505 192.337 483.505 192.225C483.505 192.113 483.474 192.006 483.418 191.927C483.362 191.848 483.285 191.803 483.206 191.803H483.205L481.525 191.832C481.446 191.833 481.37 191.878 481.314 191.958C481.258 192.037 481.227 192.145 481.228 192.257C481.228 192.369 481.26 192.475 481.317 192.554C481.373 192.633 481.45 192.676 481.529 192.676L481.526 192.676Z" fill="#0F1011"/>
<path d="M488.995 193.539C489.068 193.539 489.138 193.5 489.193 193.432C489.247 193.363 489.281 193.269 489.289 193.167C489.298 193.065 489.279 192.962 489.237 192.878C489.195 192.794 489.133 192.735 489.062 192.711L487.405 192.149C487.367 192.134 487.327 192.131 487.288 192.139C487.248 192.147 487.21 192.165 487.176 192.194C487.142 192.223 487.112 192.261 487.089 192.306C487.065 192.351 487.048 192.402 487.039 192.457C487.03 192.511 487.028 192.568 487.035 192.623C487.041 192.678 487.055 192.731 487.077 192.778C487.098 192.826 487.126 192.867 487.158 192.899C487.191 192.931 487.228 192.953 487.266 192.965L488.922 193.527C488.946 193.535 488.971 193.539 488.995 193.539V193.539Z" fill="#0F1011"/>
<path d="M490.924 197.343C490.896 197.838 490.936 198.337 491.044 198.81C491.152 199.283 491.325 199.722 491.554 200.101C491.782 200.48 492.061 200.792 492.375 201.02C492.689 201.247 493.032 201.384 493.384 201.425C493.735 201.466 494.089 201.408 494.425 201.256C494.762 201.104 495.073 200.86 495.342 200.539C495.611 200.217 495.833 199.824 495.994 199.382C496.155 198.939 496.253 198.457 496.282 197.961C496.317 197.464 496.28 196.962 496.175 196.485C496.069 196.008 495.896 195.565 495.666 195.184C495.437 194.803 495.155 194.492 494.838 194.267C494.521 194.043 494.175 193.911 493.821 193.879C491.908 193.791 491.045 195.264 490.924 197.343Z" fill="#E98862"/>
<g opacity="0.15">
<path d="M484.812 200.11C484.865 200.112 484.916 200.086 484.956 200.038C484.997 199.99 485.023 199.923 485.032 199.849C485.04 199.776 485.029 199.701 485 199.638C484.972 199.575 484.929 199.528 484.878 199.507L483.589 198.949L484.491 196.121C484.514 196.046 484.515 195.962 484.495 195.887C484.474 195.811 484.433 195.75 484.38 195.717C484.328 195.683 484.268 195.681 484.214 195.709C484.16 195.737 484.116 195.794 484.092 195.868L483.088 199.015C483.075 199.055 483.069 199.098 483.069 199.141C483.068 199.185 483.075 199.228 483.087 199.268C483.1 199.308 483.118 199.344 483.142 199.373C483.165 199.402 483.192 199.424 483.221 199.437L484.751 200.093C484.771 200.103 484.791 200.109 484.812 200.11V200.11Z" fill="black"/>
</g>
<path d="M487.333 202.191C485.997 202.379 484.648 202.223 483.352 201.73C483.433 202.362 483.66 202.938 483.997 203.369C484.334 203.8 484.763 204.062 485.217 204.114C485.671 204.167 486.124 204.006 486.507 203.659C486.89 203.311 487.18 202.795 487.333 202.191V202.191Z" fill="white"/>
<path d="M451.013 226.027C451.013 226.027 450.314 218.69 446.618 219.711C444.29 220.355 433.048 221.538 433.003 223.001C432.897 226.622 443.197 225.736 444.41 228.884L451.013 226.027Z" fill="#E98862"/>
<path d="M447.958 219.718C447.958 219.718 442.563 218.225 441.324 218.87C440.228 219.442 442.805 221.628 442.805 221.628L447.958 219.718Z" fill="#E98862"/>
<path d="M460.353 238.169L465.657 236.977C465.865 236.93 466.065 236.822 466.241 236.659C466.418 236.496 466.569 236.282 466.683 236.032C466.797 235.781 466.872 235.499 466.903 235.205C466.935 234.911 466.921 234.61 466.865 234.324L463.528 217.458C463.429 216.959 463.203 216.528 462.893 216.247C462.583 215.967 462.211 215.858 461.847 215.94L456.543 217.131C456.335 217.178 456.135 217.287 455.959 217.449C455.782 217.612 455.631 217.826 455.517 218.076C455.403 218.327 455.328 218.608 455.296 218.903C455.265 219.197 455.278 219.497 455.335 219.784L458.672 236.649C458.771 237.149 458.997 237.581 459.307 237.861C459.617 238.141 459.989 238.251 460.353 238.169V238.169Z" fill="white"/>
<path d="M468.894 233.747L465.768 239.725C465.768 239.725 457.359 237.352 456.571 228.229C456.48 227.177 456.559 224.272 457.483 224.662C459.888 225.677 462.884 230.878 464.983 231.571C464.504 230.362 463.919 228.655 464.297 228.343C465.287 227.522 467.954 232.475 468.894 233.747Z" fill="#E98862"/>
<path d="M506.553 260.329C506.551 262.523 506.677 264.714 506.933 266.879C498.573 278.45 487.316 284.923 475.595 284.896C474.231 284.896 472.881 284.809 471.544 284.634C471.404 279.799 473.978 274.337 473.839 257.865C473.832 257.031 473.811 256.188 473.779 255.326L472.581 253.855L468.411 264.892C468.02 265.916 467.449 266.781 466.752 267.403C466.056 268.025 465.257 268.383 464.433 268.443C464.353 268.443 464.273 268.453 464.2 268.453C463.414 268.453 462.64 268.179 461.947 267.656C461.254 267.133 460.664 266.377 460.229 265.454L443.086 229.156L451.028 221.708L463.747 248.636L465.218 244.738L462.417 241.271L468.71 231.171L469.827 232.558L473.719 222.27L473.818 222.345C475.176 219.018 477.624 216.873 481.841 216.62C482.114 216.601 482.553 216.592 483.124 216.573C483.238 219.965 498.139 219.955 498.458 216.498C502.669 216.498 506.121 218.316 508.117 221.136C515.008 230.843 506.553 247.38 506.553 260.329Z" fill="#367CFF"/>
<path d="M483.125 216.575C483.238 219.965 484.546 224.95 488.585 225.326C493.967 225.825 498.141 219.952 498.456 216.494H498.443C493.144 216.494 486.213 216.507 483.125 216.575Z" fill="#E98862"/>
</g>
<defs>
<clipPath id="clip0_5_3255">
<rect width="536" height="464" fill="white"/>
</clipPath>
</defs>
</svg>
