<svg width="536" height="466" viewBox="0 0 536 466" fill="none" xmlns="http://www.w3.org/2000/svg">
<g clip-path="url(#clip0_5_3387)">
<path d="M31.1835 466C10.6826 466 -4.19687 432.189 1.06655 397.714C7.9822 352.422 17.3353 320.874 58.8941 284.404C94.9223 252.753 123.804 206.368 141.963 150.993C167.638 72.7391 180.112 0 228.353 0C299.737 0 300.113 95.1622 321.396 104.84C342.678 114.517 414.022 85.7773 429.959 170.609C459.418 327.422 498.96 251.826 529.648 372.582C531.565 380.197 533.216 387.95 534.596 395.809C540.779 430.68 525.768 465.999 504.793 465.999L31.1835 466Z" fill="#F3F5FD"/>
<path d="M410.241 14.311H118.049V323.306H410.241V14.311Z" fill="#DEE8F5"/>
<path d="M345.745 131.711H182.544C177.324 131.711 173.091 137.891 173.091 145.515C173.091 153.139 177.324 159.319 182.544 159.319H345.745C350.966 159.319 355.198 153.139 355.198 145.515C355.198 137.891 350.966 131.711 345.745 131.711Z" fill="white"/>
<path d="M355.199 145.513C355.2 147.325 354.957 149.119 354.483 150.794C354.009 152.468 353.314 153.99 352.437 155.272C351.56 156.555 350.519 157.572 349.373 158.267C348.227 158.962 346.999 159.32 345.758 159.321H315.313V131.713H345.744C346.985 131.712 348.215 132.068 349.362 132.761C350.509 133.454 351.551 134.47 352.429 135.752C353.307 137.033 354.004 138.554 354.479 140.228C354.955 141.903 355.2 143.698 355.2 145.51L355.199 145.513Z" fill="#0CBC8B"/>
<path d="M410.241 14.311H118.049V39.7644H410.241V14.311Z" fill="#C1D8ED"/>
<path d="M400.455 33.4237C402.87 33.4237 404.828 30.5645 404.828 27.0376C404.828 23.5106 402.87 20.6514 400.455 20.6514C398.039 20.6514 396.081 23.5106 396.081 27.0376C396.081 30.5645 398.039 33.4237 400.455 33.4237Z" fill="white"/>
<path d="M236.183 220.974C235.687 220.973 235.198 220.816 234.749 220.511C234.299 220.207 233.901 219.764 233.58 219.212C233.26 218.661 233.026 218.014 232.894 217.317C232.762 216.62 232.735 215.889 232.816 215.175L237.691 172.514C237.84 171.211 238.337 170.048 239.073 169.28C239.809 168.513 240.724 168.204 241.616 168.421C242.508 168.638 243.304 169.364 243.83 170.439C244.355 171.514 244.567 172.849 244.418 174.152L239.543 216.814C239.41 217.975 239 219.031 238.385 219.792C237.769 220.554 236.989 220.973 236.183 220.974V220.974Z" fill="#0CBC8B"/>
<path d="M243.066 175.45C238.203 175.455 233.52 172.763 229.964 167.918C226.407 163.074 224.244 156.438 223.911 149.352C223.578 142.267 225.099 135.262 228.169 129.752C231.238 124.243 235.625 120.642 240.443 119.676C245.262 118.71 250.151 120.452 254.123 124.55C258.095 128.648 260.854 134.796 261.84 141.751C262.826 148.705 261.967 155.947 259.437 162.011C256.906 168.076 252.892 172.511 248.208 174.42C246.534 175.101 244.804 175.448 243.066 175.45V175.45ZM239.743 130.05C236.987 131.171 234.584 133.652 232.941 137.07C231.298 140.489 230.517 144.634 230.732 148.798C230.948 152.963 232.145 156.89 234.121 159.909C236.096 162.929 238.728 164.856 241.567 165.36C244.406 165.864 247.277 164.915 249.691 162.675C252.105 160.434 253.912 157.041 254.804 153.073C255.697 149.105 255.619 144.808 254.586 140.914C253.552 137.02 251.625 133.77 249.134 131.718C247.722 130.547 246.165 129.797 244.553 129.51C242.941 129.224 241.306 129.407 239.743 130.05V130.05Z" fill="#0CBC8B"/>
<path d="M208.206 458.567L198.395 456.864C198.837 451.441 199.336 444.928 199.37 443.86C199.37 443.929 199.37 443.985 199.37 444.028H209.25C209.248 444.461 209.248 445.777 208.206 458.567Z" fill="#E98862"/>
<path d="M168.841 460.292L158.961 460.245C158.961 460.245 158.994 445.348 158.994 444.028H168.874C168.874 445.352 168.841 460.292 168.841 460.292Z" fill="#E98862"/>
<path d="M211.851 453.579C211.033 423.345 210.984 391.591 210.728 361.278C207.328 328.584 205.544 292.723 201.349 260.258L201.224 260.312L200.856 256.65L165.066 253.428C165.066 253.428 164.132 279.036 163.807 287.571C162.062 333.315 158.522 406.841 156.415 453.194L173.76 455.334C176.858 409.746 181.909 337.121 184.708 292.19C187.78 315.085 190.677 340.867 193.404 364.033C194.001 393.627 194.501 424.467 194.446 454.013L211.851 453.579Z" fill="#262626"/>
<path d="M180.85 465.872C181.363 465.868 181.853 465.568 182.214 465.036C182.575 464.505 182.776 463.786 182.774 463.037C182.774 462.969 182.774 462.9 182.768 462.831C182.74 462.295 182.607 461.782 182.385 461.353C182.163 460.923 181.862 460.595 181.517 460.407L170.018 454.782C169.795 454.675 169.559 454.639 169.326 454.677C169.093 454.715 168.868 454.826 168.667 455.002C167.086 456.604 165.195 457.422 163.272 457.338C161.774 457.183 160.336 456.415 159.123 455.124C159.016 454.996 158.887 454.916 158.75 454.891C158.613 454.867 158.474 454.9 158.349 454.986C158.225 455.073 158.12 455.209 158.046 455.379C157.972 455.55 157.933 455.747 157.934 455.948V464.159C157.934 464.647 158.066 465.115 158.303 465.46C158.539 465.805 158.859 465.999 159.194 465.999H159.198L180.85 465.872Z" fill="#C1D8ED"/>
<path d="M220.243 465.872C220.497 465.87 220.748 465.795 220.982 465.652C221.216 465.509 221.428 465.3 221.607 465.037C221.785 464.773 221.927 464.461 222.023 464.119C222.119 463.776 222.168 463.408 222.166 463.038C222.166 462.969 222.166 462.901 222.161 462.832C222.132 462.296 221.999 461.783 221.778 461.353C221.556 460.924 221.255 460.596 220.91 460.407L209.411 454.782C209.188 454.675 208.952 454.639 208.719 454.677C208.486 454.715 208.261 454.826 208.06 455.002C206.479 456.604 204.588 457.422 202.665 457.338C201.167 457.183 199.729 456.415 198.515 455.124C198.408 454.996 198.279 454.916 198.142 454.891C198.005 454.867 197.866 454.9 197.742 454.986C197.617 455.073 197.512 455.209 197.438 455.379C197.365 455.55 197.326 455.747 197.326 455.948V464.159C197.326 464.647 197.459 465.115 197.695 465.46C197.931 465.805 198.252 465.999 198.586 465.999H198.591L220.243 465.872Z" fill="#C1D8ED"/>
<path d="M176.662 182.989C176.662 182.989 180.3 180.173 179.488 165.707L187.004 163.672C187.004 163.672 186.157 176.641 189.962 180.759L176.662 182.989Z" fill="#E98862"/>
<path d="M175.223 160.098C175.744 164.487 177.384 168.643 180.035 170.059C183.182 171.743 185.513 171.857 189.142 171.857C194.093 171.857 193.929 164.316 194.069 156.716C194.21 149.091 193.793 140.903 191.835 138.245C187.931 132.938 176.464 136.298 175.07 145.174C174.35 149.765 174.726 155.921 175.223 160.098Z" fill="#E98862"/>
<path d="M197.128 138.161C196.3 133.725 193.718 131.558 189.449 133.188C186.413 134.347 186.028 133.305 183.457 131.497C181.984 130.462 177.153 130.935 175.957 135.71C174.676 140.825 170.711 136.683 170.343 145.016C170.035 151.991 171.649 161.961 174.894 167.571C176.017 169.514 177.849 171.842 179.269 172.417C180.663 172.984 186.689 172.486 187.275 171.982C190.153 169.487 189.857 158.043 189.401 150.702C189.326 149.494 189.478 147.487 191.601 147.487C193.059 147.487 193.867 147.436 194.62 146.643C194.619 146.643 197.957 142.596 197.128 138.161Z" fill="#0F1011"/>
<path d="M192.251 158.158C192.309 159.269 192.063 160.369 191.567 161.216C191.071 162.064 190.366 162.59 189.605 162.681C188.844 162.772 188.089 162.419 187.506 161.701C186.922 160.982 186.557 159.955 186.491 158.845C186.454 158.302 186.491 157.754 186.599 157.233C186.707 156.711 186.885 156.226 187.121 155.804C187.358 155.383 187.649 155.033 187.978 154.776C188.307 154.519 188.668 154.359 189.04 154.306C189.071 154.301 189.103 154.297 189.134 154.294C191.195 154.199 192.121 155.835 192.251 158.158Z" fill="#E98862"/>
<path d="M154.532 278.179C154.532 280.226 155.273 287.071 154.082 287.559C153.368 287.853 152.525 282.75 152.525 282.75" fill="#E98862"/>
<path d="M148.912 277.104C148.912 277.104 145.024 290.922 149.458 298.861C149.571 299.063 149.723 299.21 149.895 299.284C150.066 299.358 150.249 299.354 150.419 299.274C150.589 299.193 150.738 299.04 150.848 298.834C150.957 298.628 151.021 298.378 151.032 298.117C151.248 292.765 151.987 281.771 154.404 283.055V274.425" fill="#E98862"/>
<path d="M236.576 203.484C236.576 203.484 242.125 193.612 242.817 191.511C245.251 184.114 244.035 180.725 243.021 179.642C241.825 178.362 236.277 189.248 236.277 189.248C236.277 189.248 236.758 185.332 235.719 185.074C235.292 184.969 234.954 185.581 234.286 188.353C233.525 191.513 232.004 196.264 232.004 196.264L236.576 203.484Z" fill="#E98862"/>
<path d="M230.86 195.11L214.8 221.496L202.239 188.662C201.05 183.474 198.342 180 192.819 179.654C190.93 179.536 181.714 179.517 174.965 179.517C170.432 179.517 166.71 181.548 164.561 184.686C163.478 186.244 162.668 188.16 162.199 190.271L162.134 190.236L151.335 233.112C151.214 233.592 151.127 234.09 151.076 234.597L146.717 277.472L156.864 279.67L161.145 237.555L165.507 220.238C165.961 222.9 166.209 225.627 166.247 228.37C166.247 242.797 161.777 249.267 162.107 256.674C162.624 268.315 201.356 265.564 203.33 258.952C205.361 252.133 201.237 247.931 201.418 225.627C201.437 223.199 201.566 220.66 201.743 218.074L209.364 237.997C209.763 239.04 210.327 239.928 211.01 240.588C211.692 241.248 212.473 241.66 213.286 241.789C213.471 241.819 213.656 241.834 213.842 241.833C214.567 241.833 215.283 241.609 215.943 241.176C216.604 240.743 217.194 240.11 217.675 239.319L238.791 203.253L230.86 195.11Z" fill="#367CFF"/>
<path d="M335.312 147.007L333.784 148.049L336.351 156.072L337.879 155.03L335.312 147.007Z" fill="white"/>
<path d="M333.214 149.482C332.275 149.483 331.358 149.076 330.578 148.315C329.798 147.554 329.189 146.472 328.83 145.206C328.471 143.94 328.377 142.547 328.56 141.203C328.743 139.859 329.195 138.624 329.858 137.655C330.522 136.686 331.367 136.027 332.288 135.759C333.208 135.492 334.162 135.629 335.029 136.153C335.896 136.678 336.637 137.566 337.158 138.705C337.68 139.844 337.958 141.184 337.958 142.554C337.956 144.391 337.456 146.151 336.566 147.45C335.677 148.749 334.472 149.48 333.214 149.482V149.482ZM333.214 138.089C332.609 138.089 332.018 138.351 331.515 138.842C331.012 139.333 330.62 140.03 330.389 140.846C330.157 141.662 330.097 142.56 330.215 143.426C330.333 144.292 330.624 145.088 331.052 145.712C331.479 146.337 332.024 146.762 332.617 146.934C333.21 147.107 333.825 147.018 334.384 146.68C334.943 146.342 335.42 145.77 335.756 145.036C336.092 144.301 336.272 143.438 336.272 142.555C336.271 141.371 335.948 140.236 335.375 139.399C334.802 138.562 334.025 138.091 333.214 138.089V138.089Z" fill="white"/>
<path d="M463.188 464.61C472.811 462.274 482.279 458.598 491.869 444.944C493.836 442.147 495.785 438.449 495.217 434.518C494.791 431.56 492.959 429.356 490.974 428.489C490.233 428.177 489.47 427.992 488.7 427.939C488.695 427.939 488.692 427.939 488.691 427.935C487.504 427.877 486.317 427.978 485.143 428.237L484.808 428.305C479.212 429.467 473.765 431.828 468.641 435.313C468.177 435.626 467.654 435.701 467.157 435.525C466.659 435.348 466.218 434.931 465.904 434.342C465.59 433.752 465.422 433.025 465.428 432.278C465.433 431.531 465.612 430.809 465.934 430.229C466.522 429.179 467.181 428.219 467.902 427.364C468.962 426.132 470.099 425.048 471.298 424.124C472.893 422.868 474.571 421.798 476.219 420.69C482.342 416.573 488.23 411.748 493.826 406.259C497.82 402.336 501.783 397.889 504.085 391.714C505.143 388.873 505.819 385.491 505.163 382.404C504.078 377.331 499.866 375.134 496.228 375.416C489.852 375.915 484.267 381.576 479.245 387.328C475.08 392.109 470.419 397.393 465.143 396.686C464.238 396.63 463.364 396.188 462.629 395.413C461.256 393.792 461.159 390.65 461.919 388.322C462.679 385.993 464.096 384.295 465.461 382.664C473.397 373.2 481.264 363.276 487.001 350.885C492.739 338.493 496.196 323.199 494.392 308.47C493.862 304.163 492.861 299.875 490.995 296.448C489.128 293.021 486.293 290.544 483.293 290.53C479.206 290.502 475.719 294.848 473.208 299.55C464.577 315.686 462.997 337.249 459.15 356.937C458.073 362.449 456.732 368.054 454.008 372.224C453.755 372.627 453.445 372.946 453.101 373.159C451.064 374.379 449.672 370.824 449.218 367.953C447.431 356.593 447.887 344.101 443.714 334.163C442.122 330.38 439.682 326.995 436.667 326.422C432.984 325.726 429.413 329.587 427.858 334.514C426.304 339.441 426.425 345.153 427.098 350.487C428.349 360.379 431.382 369.643 435.194 378.018C437.204 382.438 439.522 386.961 439.752 392.252C439.807 394.045 439.547 395.829 438.997 397.435C438.447 399.04 437.625 400.413 436.609 401.424C436.136 401.878 435.605 402.188 435.049 402.336C434.492 402.484 433.921 402.468 433.368 402.287C432.176 401.885 431.167 400.767 430.196 399.683C429.788 399.227 429.379 398.766 428.967 398.309C427.345 396.496 425.723 394.682 424.101 392.865C419.977 388.247 414.932 383.364 409.973 385.644C407.44 386.812 405.584 389.725 404.505 393.28C403.536 396.508 403.204 400.067 403.545 403.555C404.28 410.818 411.21 432.001 414.349 437.734C418.014 444.437 430.263 472.608 463.188 464.61Z" fill="#8DDBE0"/>
<path d="M58.8325 461.627C49.5147 457.41 40.4745 451.9 32.2373 436.477C30.547 433.317 28.9583 429.268 29.8851 425.485C30.5823 422.638 32.5991 420.814 34.6479 420.349C35.4112 420.186 36.1849 420.155 36.9531 420.257C36.9569 420.257 36.9607 420.257 36.9621 420.257C38.143 420.433 39.3104 420.767 40.4495 421.255L40.7751 421.393C46.2116 423.649 51.3903 427.064 56.1438 431.529C56.5746 431.929 57.0856 432.105 57.5936 432.028C58.1016 431.952 58.5769 431.626 58.9422 431.104C59.3074 430.583 59.5411 429.897 59.6053 429.157C59.6696 428.417 59.5605 427.667 59.2959 427.029C58.8108 425.872 58.2465 424.79 57.6116 423.8C56.6751 422.37 55.6491 421.071 54.5471 419.92C53.0821 418.359 51.5193 416.966 49.9898 415.541C44.3039 410.252 38.9171 404.307 33.8811 397.763C30.2868 393.087 26.7721 387.898 25.0634 381.325C24.2787 378.302 23.9216 374.817 24.8578 371.887C26.4028 367.079 30.7789 365.731 34.3581 366.729C40.6288 368.483 45.6386 375.195 50.0811 381.886C53.7652 387.446 57.8934 393.602 63.1865 393.943C64.0887 394.066 64.9958 393.801 65.7956 393.179C67.3058 391.844 67.6939 388.749 67.1557 386.293C66.6175 383.836 65.3722 381.873 64.1702 379.988C57.1835 369.047 50.3083 357.657 45.7713 344.247C41.2343 330.836 39.2254 315 42.3779 300.761C43.3019 296.598 44.6907 292.547 46.8576 289.523C49.0245 286.499 52.0622 284.603 55.0364 285.182C59.0884 285.961 62.1402 290.953 64.1933 296.111C71.2501 313.803 70.8187 335.48 72.8063 355.746C73.3624 361.42 74.1706 367.239 76.4853 371.909C76.6987 372.358 76.9756 372.735 77.2973 373.015C79.2016 374.625 80.9103 371.378 81.6254 368.622C84.4481 357.721 85.1538 345.254 90.2074 336.231C92.1363 332.796 94.8649 329.925 97.9064 329.953C101.623 329.99 104.801 334.521 105.885 339.709C106.969 344.896 106.32 350.533 105.159 355.685C103.003 365.238 99.1394 373.821 94.5868 381.364C92.1875 385.348 89.4726 389.371 88.7532 394.567C88.5328 396.333 88.6252 398.152 89.0215 399.851C89.4177 401.55 90.1048 403.073 91.0175 404.276C91.4443 404.818 91.9413 405.23 92.4791 405.487C93.0169 405.744 93.5846 405.84 94.1484 405.771C95.3678 405.608 96.4705 404.7 97.5356 403.817C97.9816 403.446 98.4295 403.07 98.8797 402.701C100.655 401.225 102.43 399.747 104.206 398.268C108.72 394.507 114.171 390.665 118.873 393.903C121.272 395.559 122.844 398.814 123.583 402.55C124.245 405.94 124.245 409.533 123.583 412.923C122.183 419.973 113.355 439.593 109.714 444.653C105.46 450.563 90.7141 476.055 58.8325 461.627Z" fill="#8DDBE0"/>
</g>
<defs>
<clipPath id="clip0_5_3387">
<rect width="536" height="466" fill="white"/>
</clipPath>
</defs>
</svg>
