<svg width="536" height="471" viewBox="0 0 536 471" fill="none" xmlns="http://www.w3.org/2000/svg">
<g clip-path="url(#clip0_5_3347)">
<path d="M536 471H0C5.87314 449.783 16.7193 431.787 32.0086 426.448C54.3751 418.647 78.0446 440.093 100.361 432.031C113.04 427.454 123.022 414.113 133.51 403.041C173.08 361.251 227.306 348.899 274.129 371.019C298.604 382.575 320.907 402.784 345.98 411.379C378.4 422.493 412.305 413.276 445.644 411.757C478.114 410.274 524.64 429.018 536 471Z" fill="#F3F5FD"/>
<path d="M318.714 347.128H250.95V455.782H318.714V347.128Z" fill="#DEE8F5"/>
<path d="M449.758 0H119.905C112.682 0 106.826 8.29436 106.826 18.526V381.747C106.826 391.978 112.682 400.273 119.905 400.273H449.758C456.982 400.273 462.837 391.978 462.837 381.747V18.526C462.837 8.29436 456.982 0 449.758 0Z" fill="#DEE8F5"/>
<path d="M448.945 12.6348H120.717C117.523 12.6348 114.934 16.3018 114.934 20.8254V338.57C114.934 343.093 117.523 346.76 120.717 346.76H448.945C452.139 346.76 454.728 343.093 454.728 338.57V20.8254C454.728 16.3018 452.139 12.6348 448.945 12.6348Z" fill="white"/>
<path d="M340.109 446.044H229.554C224.688 446.044 220.745 451.63 220.745 458.522C220.745 465.413 224.688 471 229.554 471H340.109C344.974 471 348.918 465.413 348.918 458.522C348.918 451.63 344.974 446.044 340.109 446.044Z" fill="#DEE8F5"/>
<path d="M315.207 260.374H254.456V282.096H315.207V260.374Z" fill="#DEE8F5"/>
<path d="M308.834 62.7961V72.249C308.834 73.8568 308.383 75.3987 307.58 76.5356C306.777 77.6725 305.689 78.3112 304.554 78.3112H218.667C217.532 78.3112 216.443 78.9499 215.641 80.0867C214.838 81.2236 214.387 82.7655 214.387 84.3733V222.638C214.387 224.246 214.838 225.788 215.641 226.924C216.443 228.061 217.532 228.7 218.667 228.7H350.996C352.131 228.7 353.22 228.061 354.023 226.924C354.825 225.788 355.276 224.246 355.276 222.638V62.7961C355.276 61.1883 354.825 59.6463 354.023 58.5095C353.22 57.3726 352.131 56.7339 350.996 56.7339H313.115C312.553 56.7335 311.996 56.8901 311.477 57.1946C310.957 57.4991 310.485 57.9455 310.088 58.5085C309.69 59.0715 309.375 59.7399 309.16 60.4755C308.944 61.2112 308.834 61.9997 308.834 62.7961V62.7961Z" fill="#DEE8F5"/>
<path d="M286.798 119.509H282.865V187.506H286.798V119.509Z" fill="white"/>
<path d="M308.834 150.723H260.83V156.294H308.834V150.723Z" fill="white"/>
<path d="M136.021 463.713L126.104 462.041C126.551 456.726 127.055 450.339 127.09 449.292C127.09 449.359 127.09 449.414 127.09 449.457H137.076C137.074 449.88 137.074 451.172 136.021 463.713Z" fill="#E98862"/>
<path d="M96.2313 465.403L86.2454 465.357C86.2454 465.357 86.2787 450.751 86.2787 449.46H96.2646C96.2646 450.756 96.2313 465.403 96.2313 465.403Z" fill="#E98862"/>
<path d="M139.705 458.821C138.878 429.178 138.828 398.044 138.57 368.322C135.135 336.264 133.33 301.104 129.09 269.273L128.964 269.326L128.592 265.736L92.4157 262.574C92.4157 262.574 91.4723 287.683 91.1432 296.05C89.3805 340.902 85.8017 412.993 83.6719 458.442L101.203 460.54C104.335 415.841 108.489 344.635 111.319 300.579C114.424 323.028 118.303 348.307 121.06 371.021C121.663 400.037 122.168 430.275 122.113 459.245L139.705 458.821Z" fill="#262626"/>
<path d="M108.371 470.874C108.639 470.872 108.905 470.792 109.15 470.638C109.396 470.485 109.617 470.261 109.799 469.981C109.981 469.701 110.12 469.371 110.208 469.012C110.296 468.653 110.33 468.271 110.31 467.892V467.892C110.28 467.366 110.146 466.863 109.922 466.442C109.698 466.021 109.394 465.699 109.045 465.515L97.422 460C97.1968 459.895 96.9583 459.86 96.7226 459.897C96.4869 459.934 96.2596 460.042 96.0563 460.215C94.4585 461.786 92.547 462.589 90.603 462.505C89.0891 462.353 87.6358 461.601 86.409 460.335C86.3011 460.21 86.1703 460.131 86.0319 460.107C85.8934 460.083 85.753 460.115 85.627 460.2C85.501 460.284 85.3946 460.418 85.3202 460.585C85.2458 460.752 85.2065 460.946 85.2069 461.144V469.194C85.2068 469.432 85.2399 469.667 85.3042 469.886C85.3685 470.106 85.4627 470.305 85.5815 470.472C85.7004 470.64 85.8414 470.773 85.9965 470.863C86.1517 470.953 86.3178 470.999 86.4855 470.998L108.371 470.874Z" fill="#C1D8ED"/>
<path d="M148.187 470.874C148.456 470.872 148.721 470.792 148.967 470.638C149.213 470.485 149.433 470.261 149.615 469.981C149.797 469.701 149.936 469.371 150.024 469.012C150.112 468.653 150.147 468.271 150.126 467.892V467.892C150.097 467.366 149.963 466.863 149.739 466.442C149.515 466.021 149.21 465.699 148.862 465.515L137.239 460C137.013 459.895 136.775 459.86 136.539 459.897C136.304 459.934 136.076 460.042 135.873 460.215C134.275 461.786 132.364 462.589 130.42 462.505C128.906 462.353 127.452 461.601 126.225 460.335C126.117 460.21 125.987 460.131 125.848 460.107C125.71 460.082 125.569 460.115 125.443 460.199C125.317 460.284 125.211 460.418 125.137 460.585C125.062 460.752 125.023 460.946 125.024 461.144V469.194C125.023 469.432 125.057 469.667 125.121 469.886C125.185 470.106 125.279 470.305 125.398 470.472C125.517 470.64 125.658 470.773 125.813 470.863C125.968 470.953 126.134 470.999 126.302 470.998L148.187 470.874Z" fill="#C1D8ED"/>
<path d="M146.322 215.247L146.543 215.382L143.777 216.014L146.492 223.356C146.492 223.356 156.56 226.694 161.271 219.186C161.391 218.995 161.468 218.757 161.49 218.503C161.513 218.249 161.481 217.992 161.399 217.764C161.317 217.536 161.188 217.349 161.03 217.227C160.871 217.104 160.69 217.052 160.511 217.078C157.795 217.468 152.954 217.933 150.774 216.714C151.732 216.047 153.004 215.026 152.805 214.416C152.279 212.812 147.721 214.927 146.322 215.247Z" fill="#E98862"/>
<path d="M137.089 219.355L137.982 220.144H137.089V219.355Z" fill="#FD5D76"/>
<path d="M196.534 219.91H143.777V123.433H185.306L196.534 140.241V219.91Z" fill="#C1D8ED"/>
<path d="M185.306 123.433V140.241H196.534L185.306 123.433Z" fill="#DEE8F5"/>
<path d="M190.55 165.01H149.761V168.223H190.55V165.01Z" fill="#DEE8F5"/>
<path d="M190.55 175.487H149.761V178.7H190.55V175.487Z" fill="#DEE8F5"/>
<path d="M190.55 185.964H149.761V189.177H190.55V185.964Z" fill="#DEE8F5"/>
<path d="M190.55 196.441H149.761V199.654H190.55V196.441Z" fill="#DEE8F5"/>
<path d="M190.55 206.918H149.761V210.131H190.55V206.918Z" fill="#DEE8F5"/>
<path d="M176.162 215.247L176.383 215.382L173.617 216.014L176.332 223.356C176.332 223.356 186.4 226.694 191.111 219.186C191.231 218.995 191.307 218.757 191.33 218.503C191.353 218.249 191.321 217.992 191.239 217.764C191.157 217.536 191.028 217.349 190.869 217.227C190.711 217.104 190.53 217.052 190.35 217.078C187.635 217.468 182.794 217.933 180.614 216.714C181.572 216.047 182.844 215.026 182.644 214.416C182.119 212.812 177.559 214.927 176.162 215.247Z" fill="#E98862"/>
<path d="M103.421 194.124C103.421 194.124 107.098 191.362 106.277 177.179L113.874 175.184C113.874 175.184 113.018 187.899 116.864 191.937L103.421 194.124Z" fill="#E98862"/>
<path d="M101.967 171.679C102.492 175.983 104.15 180.057 106.83 181.446C110.011 183.098 112.365 183.212 116.035 183.212C121.04 183.212 120.874 175.819 121.015 168.368C121.158 160.891 120.736 152.864 118.758 150.257C114.811 145.054 103.221 148.349 101.812 157.051C101.083 161.549 101.466 167.585 101.967 171.679Z" fill="#E98862"/>
<path d="M115.466 180.741C114.705 182.627 107.726 182.535 105.908 181.011C104.121 179.511 100.102 176.91 98.733 164.655C97.5057 153.676 102.288 149.145 106.101 147.53C109.389 146.136 117.061 145.85 120.661 148.924C123.764 151.573 120.661 157.735 120.661 157.735C120.079 157.931 119.483 158.037 118.885 158.05C116.739 158.05 116.301 160.029 116.376 161.216C116.838 168.41 116.393 178.44 115.466 180.741Z" fill="#0F1011"/>
<path d="M119.775 169.777C119.812 170.323 119.772 170.874 119.658 171.397C119.543 171.921 119.356 172.407 119.108 172.828C118.859 173.248 118.554 173.595 118.21 173.847C117.867 174.099 117.491 174.252 117.105 174.296C116.719 174.341 116.331 174.276 115.963 174.107C115.595 173.937 115.254 173.665 114.961 173.307C114.668 172.95 114.428 172.513 114.255 172.022C114.082 171.532 113.979 170.998 113.953 170.451C113.915 169.907 113.954 169.359 114.069 168.837C114.184 168.316 114.372 167.833 114.621 167.417C114.87 167 115.176 166.659 115.521 166.414C115.865 166.169 116.241 166.024 116.625 165.989C118.707 165.895 119.643 167.5 119.775 169.777Z" fill="#E98862"/>
<path d="M174.722 213.577L149.541 225.127L147.773 220.143H141.979L129.377 197.005C127.948 193.08 125.255 190.532 120.468 190.242C118.559 190.126 109.243 190.107 102.422 190.107C97.84 190.107 94.0781 192.099 91.9055 195.176C84.4161 205.786 93.6093 223.864 93.6093 238.015C93.6093 252.166 89.0918 258.504 89.4247 265.767C89.9478 277.18 129.097 274.483 131.092 268C132.925 262.032 129.802 258.099 129.24 241.768L137.467 235.912L139.681 239.977C140.334 241.176 141.232 242.059 142.252 242.507C143.273 242.955 144.366 242.945 145.383 242.478L177.915 227.557L174.722 213.577ZM129.709 224.99C129.787 224.03 129.867 223.067 129.95 222.102L131.016 224.06L129.709 224.99Z" fill="#367CFF"/>
<path d="M67.0691 414.528C64.6915 413.426 62.2512 414.663 59.9164 417.178C62.9916 406.179 64.2612 396.243 59.0034 395.795C55.3252 395.483 52.5068 399.48 50.3661 405.164C49.6138 395.171 47.6708 387.718 43.3198 390.189C38.5427 392.902 37.8157 402.198 38.5404 411.926C36.4362 406.958 34.1699 404.187 32.1128 407.101C25.9724 415.799 41.044 440.309 41.044 440.309H44.7873L46.9233 443.594C46.491 444.889 46.2542 445.66 46.2542 445.66L48.9675 453.482C48.9675 453.482 76.9366 419.103 67.0691 414.528Z" fill="#8DDBE0"/>
<path d="M60.3576 471H39.1733L35.6273 435.969H63.9041L60.3576 471Z" fill="#C1D8ED"/>
<path d="M477.11 468.589C486.743 465.611 496.174 461.335 505.382 447.278C507.272 444.398 509.111 440.637 508.402 436.829C507.869 433.963 505.946 431.934 503.91 431.228C503.151 430.976 502.374 430.851 501.595 430.855C501.591 430.855 501.587 430.855 501.586 430.855C500.386 430.884 499.19 431.067 498.014 431.404L497.678 431.497C492.07 433.035 486.652 435.738 481.601 439.516C481.143 439.856 480.618 439.967 480.11 439.83C479.602 439.693 479.143 439.316 478.805 438.762C478.468 438.207 478.273 437.507 478.253 436.776C478.232 436.044 478.387 435.325 478.692 434.734C479.249 433.664 479.881 432.676 480.579 431.787C481.607 430.505 482.717 429.361 483.895 428.372C485.465 427.025 487.119 425.859 488.746 424.652C494.785 420.183 500.562 415.036 506.02 409.26C509.92 405.133 513.764 400.495 515.874 394.282C516.843 391.425 517.41 388.065 516.64 385.088C515.369 380.199 511.041 378.348 507.378 378.885C500.959 379.828 495.516 385.774 490.646 391.767C486.605 396.746 482.087 402.255 476.735 401.938C475.819 401.947 474.921 401.577 474.152 400.871C472.71 399.382 472.503 396.312 473.19 393.978C473.877 391.644 475.248 389.879 476.57 388.185C484.254 378.351 491.852 368.068 497.215 355.522C502.578 342.977 505.537 327.754 503.207 313.458C502.522 309.282 501.364 305.152 499.361 301.932C497.358 298.712 494.411 296.488 491.382 296.689C487.255 296.954 483.886 301.46 481.513 306.244C473.358 322.663 472.51 343.892 469.308 363.447C468.412 368.921 467.252 374.506 464.648 378.785C464.406 379.198 464.105 379.532 463.765 379.766C461.752 381.106 460.223 377.725 459.665 374.945C457.468 363.95 457.496 351.684 452.94 342.251C451.202 338.66 448.622 335.52 445.559 335.178C441.816 334.76 438.345 338.796 436.946 343.733C435.547 348.669 435.867 354.253 436.731 359.427C438.336 369.023 441.719 377.879 445.857 385.807C448.039 389.992 450.534 394.255 450.952 399.42C451.069 401.172 450.869 402.937 450.37 404.549C449.87 406.16 449.088 407.564 448.098 408.627C447.637 409.105 447.112 409.447 446.555 409.632C445.998 409.817 445.421 409.842 444.857 409.705C443.639 409.397 442.582 408.375 441.564 407.382C441.136 406.965 440.708 406.543 440.277 406.127C438.576 404.468 436.876 402.807 435.175 401.143C430.852 396.917 425.59 392.495 420.663 395.081C418.147 396.403 416.374 399.391 415.408 402.95C414.541 406.18 414.329 409.689 414.795 413.081C415.788 420.14 423.516 440.387 426.884 445.776C430.808 452.07 444.149 478.78 477.11 468.589Z" fill="#8DDBE0"/>
</g>
<defs>
<clipPath id="clip0_5_3347">
<rect width="536" height="471" fill="white"/>
</clipPath>
</defs>
</svg>
